<?xml version="1.0" encoding="UTF-8"?>
<svg id="Layer_3" xmlns="http://www.w3.org/2000/svg" version="1.1" viewBox="0 0 2202.84 195.04">
  <!-- Generator: Adobe Illustrator 30.3.0, SVG Export Plug-In . SVG Version: 2.1.3 Build 182)  -->
  <defs>
    <style>
      .st0 {
        isolation: isolate;
      }

      .st1 {
        fill: #f7f7f7;
      }
    </style>
  </defs>
  <path class="st1" d="M97.88,171.65c-.68,0-1.35-.04-2.04-.08l-.28-.02c-3.63-.21-9.42-3.84-10.3-11-1.24-10.01,1.81-19.62,9.59-40.78,5.15-13.97,9.69-23.27,10.54-24.99.01-.03.03-.05.04-.08-4.05,1.88-7.64,3.17-10.58,4.05-8.55,2.54-15.36,4.83-21.01,7.05-.82,1.75-1.71,3.78-2.71,6.05-4.12,9.34-9.75,22.14-19.63,37.46-7.6,11.79-14.98,22.36-21.6,22.1-4.74-.18-7.66-3.79-7.82-9.64-.42-15.02,12.22-30.45,15.37-33.47,11.57-11.09,18.11-17.35,34.93-24.07.09-.2.19-.39.28-.58l1.41-2.89c8.32-17.04,16.93-34.67,22.79-52.94.17-.52.36-1.07.56-1.65,1.17-3.34,2.62-7.49,1.64-12.74l-.04-.25c-.58-3.82-2.77-6.19-6.52-7.06-3.74-.86-6.69-1.54-15.45,1.73-8.05,3.01-27.03,11.82-29.52,28.61-.43,2.91.47,6.52,2.01,8.06,1.88,1.89,4.08,2.83,6.49,2.78,3.39-.05,7.12-2.07,10.5-5.68,3.71-3.98,7.33-9.19,7.06-11.84-.44-4.18-4.55-4.1-5.8-3.97-3.56.35-7.19,2.78-6.91,5.83.05.52.24.7.39.79.47.29,1.31.2,1.81.09.53-.19,1.08-.34,1.5.2l.06,1.16c-.16.25-.53.43-.98.55-.01,0-.02,0-.03.01h0c-.83.21-1.92.2-2.49.06-1.32-.32-2.12-1.28-2.25-2.69-.41-4.37,4.2-7.55,8.7-8,4.44-.44,7.57,1.82,7.99,5.75.46,4.4-5.69,11.38-7.58,13.42-3.75,4.01-7.99,6.25-11.93,6.31-2.95.03-5.7-1.12-7.94-3.37-1.99-1.99-3.1-6.19-2.57-9.76,2.64-17.84,22.42-27.06,30.8-30.19,8.7-3.25,12.08-2.85,16.6-1.81,3.18.74,7.16,2.85,8.05,8.71l.03.18c1.08,5.78-.54,10.4-1.72,13.77-.2.56-.38,1.1-.54,1.6-5.9,18.41-14.54,36.1-22.89,53.2l-.75,1.53c5.29-2,11.55-4.06,19.16-6.33,3.42-1.02,7.71-2.6,12.6-5.05,3.47-7,6.59-13.41,9.38-19.14,16.05-32.95,22.69-46.59,33.96-47.36,4.42-.3,7.89,1.46,9.79,4.95,2.85,5.24-1.85,13.87-4.91,18.55-16.18,24.76-33.49,37.71-46.71,44.48-.4.8-.79,1.6-1.2,2.41-.85,1.71-5.35,10.92-10.46,24.79-7.67,20.83-10.67,30.27-9.49,39.84.82,6.61,6.14,9.11,8.43,9.25l.28.02c5.92.36,9.83.6,43.99-33.05l.03-.03h0l.84-.76,1.35,1.48-.84.76c-31.13,30.67-37.62,33.68-43.44,33.68ZM71.14,106.9c-15.05,6.31-21.42,12.4-32.31,22.84-3.02,2.9-15.16,17.68-14.75,31.97.08,2.79.95,7.51,5.9,7.7,5.61.2,13.16-10.82,19.84-21.18,9.79-15.19,15.39-27.9,19.48-37.18.66-1.49,1.27-2.87,1.84-4.15ZM151.16,27.25c-.28,0-.54,0-.81.03-10.12.69-16.61,14.03-32.3,46.25-2.46,5.05-5.17,10.63-8.16,16.67,12.63-6.95,28.54-19.58,43.52-42.5,1.77-2.71,7.34-11.89,4.83-16.51-1.73-3.18-4.67-3.94-7.09-3.94Z"/>
  <g class="st0">
    <g class="st0">
      <path class="st1" d="M190.81,72.58h2.8l-19.6,98h-2.8l19.6-98Z"/>
      <path class="st1" d="M230.85,72.58h2.8l-19.04,95.34h58.38l-.56,2.66h-61.18l19.6-98h0Z"/>
      <path class="st1" d="M312.05,72.58h35.14c29.26,0,44.94,15.82,44.94,39.2,0,34.02-23.66,58.8-61.04,58.8h-38.64l19.6-98h0ZM331.37,167.92c35.42,0,57.96-23.38,57.96-56.14,0-21.84-14-36.54-42.42-36.54h-32.62l-18.48,92.68h35.56Z"/>
      <path class="st1" d="M429.93,75.24l-8.82,44.24h54.04l-.56,2.66h-54.04l-9.1,45.78h62.44l-.56,2.66h-65.24l19.6-98h63.14l-.56,2.66h-60.34Z"/>
      <path class="st1" d="M584.34,140.62c0,19.18-14.7,29.96-40.6,29.96h-42.14l19.6-98h38.78c17.5,0,28.42,6.72,28.42,19.74,0,15.68-10.36,25.06-24.5,28.14,12.88,1.68,20.44,8.4,20.44,20.16h0ZM581.54,140.9c0-13.44-9.38-18.76-27.58-18.76h-39.9l-9.1,45.78h39.34c23.94,0,37.24-9.66,37.24-27.02h0ZM514.63,119.48h36.54c19.88,0,34.44-9.1,34.44-26.74,0-11.62-9.38-17.5-25.62-17.5h-36.54s-8.82,44.24-8.82,44.24Z"/>
      <path class="st1" d="M659.8,135.86l19.6,34.72h-3.22l-19.32-34.16c-3.08.42-6.3.56-9.66.56h-31.36l-6.72,33.6h-2.8l19.6-98h32.9c20.72,0,32.76,9.38,32.76,26.04,0,21.14-11.9,33.74-31.78,37.24h0ZM688.78,98.62c0-14.98-10.64-23.38-29.82-23.38h-30.8l-11.76,59.08h30.66c26.46,0,41.72-12.04,41.72-35.7Z"/>
      <path class="st1" d="M772.22,141.04h-60.06l-19.6,29.54h-3.36l65.1-98h2.8l25.9,98h-2.94l-7.84-29.54h0ZM771.52,138.38l-16.24-62.16-41.3,62.16h57.54Z"/>
      <path class="st1" d="M899.48,72.58l-19.6,98h-2.38l-53.2-93.38-18.62,93.38h-2.8l19.6-98h2.38l53.2,93.38,18.62-93.38s2.8,0,2.8,0Z"/>
      <path class="st1" d="M936.72,72.58h35.14c29.26,0,44.94,15.82,44.94,39.2,0,34.02-23.66,58.8-61.04,58.8h-38.64l19.6-98ZM956.04,167.92c35.42,0,57.96-23.38,57.96-56.14,0-21.84-14-36.54-42.42-36.54h-32.62l-18.48,92.68h35.56,0Z"/>
      <path class="st1" d="M1068.74,75.24h-36.4l.56-2.66h75.6l-.56,2.66h-36.4l-19.04,95.34h-2.8l19.04-95.34h0Z"/>
      <path class="st1" d="M1141.68,131.38c0-31.36,22.12-59.22,58.94-59.22,14.7,0,26.32,4.48,32.9,12.32l-1.96,1.82c-6.72-7.56-17.08-11.48-31.22-11.48-34.16,0-55.86,25.9-55.86,56.56,0,21.98,14.14,36.96,41.58,36.96,14.42,0,25.9-4.34,34.16-12.04l1.68,2.24c-8.12,7.56-21.42,12.46-36.12,12.46-28.56,0-44.1-15.96-44.1-39.62h0Z"/>
      <path class="st1" d="M1239.12,131.38c0-31.36,22.12-59.22,58.24-59.22,28.56,0,44.1,15.96,44.1,39.62,0,31.36-22.12,59.22-58.24,59.22-28.56,0-44.1-15.96-44.1-39.62ZM1338.66,111.78c0-21.98-14.14-36.96-41.58-36.96-33.46,0-55.16,25.9-55.16,56.56,0,21.98,14.14,36.96,41.58,36.96,33.46,0,55.16-25.9,55.16-56.56Z"/>
      <path class="st1" d="M1442.82,98.62c0,25.2-17.08,38.36-44.38,38.36h-31.36l-6.72,33.6h-2.8l19.6-98h32.9c20.72,0,32.76,9.38,32.76,26.04h0ZM1440.02,98.62c0-14.98-10.64-23.38-29.82-23.38h-30.8l-11.76,59.08h30.66c26.46,0,41.72-12.04,41.72-35.7Z"/>
      <path class="st1" d="M1477.4,75.24l-8.82,44.24h54.04l-.56,2.66h-54.04l-9.1,45.78h62.44l-.56,2.66h-65.24l19.6-98h63.14l-.56,2.66h-60.34,0Z"/>
      <path class="st1" d="M1645.68,72.58l-19.6,98h-2.38l-53.2-93.38-18.62,93.38h-2.8l19.6-98h2.38l53.2,93.38,18.62-93.38s2.8,0,2.8,0Z"/>
      <path class="st1" d="M1759.92,72.58l-19.6,98h-2.8l9.66-48.44h-71.4l-9.66,48.44h-2.8l19.6-98h2.8l-9.38,46.9h71.4l9.38-46.9h2.8Z"/>
      <path class="st1" d="M1843.21,141.04h-60.06l-19.6,29.54h-3.36l65.1-98h2.8l25.9,98h-2.94l-7.84-29.54h0ZM1842.51,138.38l-16.24-62.16-41.3,62.16h57.54Z"/>
      <path class="st1" d="M1963.61,84.62l-1.96,1.82c-6.72-7.7-17.5-11.62-31.92-11.62-34.16,0-55.86,25.9-55.86,56.56,0,21.98,14.14,36.96,41.58,36.96,12.74,0,22.68-4.2,31.22-11.2l6.86-34.58h2.66l-7.14,35.84c-8.26,7.56-20.3,12.6-33.88,12.6-28.56,0-44.1-15.96-44.1-39.62,0-31.36,22.12-59.22,58.94-59.22,14.98,0,27.02,4.62,33.6,12.46h0Z"/>
      <path class="st1" d="M2002.67,75.24l-8.82,44.24h54.04l-.56,2.66h-54.04l-9.1,45.78h62.44l-.56,2.66h-65.24l19.6-98h63.14l-.56,2.66h-60.34,0Z"/>
      <path class="st1" d="M2170.95,72.58l-19.6,98h-2.38l-53.2-93.38-18.62,93.38h-2.8l19.6-98h2.38l53.2,93.38,18.62-93.38s2.8,0,2.8,0Z"/>
    </g>
  </g>
</svg>