<?xml version="1.0" encoding="UTF-8"?>
<svg id="Layer_3" xmlns="http://www.w3.org/2000/svg" version="1.1" viewBox="0 0 2202.84 195.04">
  <!-- Generator: Adobe Illustrator 30.3.0, SVG Export Plug-In . SVG Version: 2.1.3 Build 182)  -->
  <defs>
    <style>
      .st0 {
        isolation: isolate;
      }

      .st1 {
        fill: none;
        stroke-width: 6px;
      }

      .st1, .st2 {
        stroke: #f7f7f7;
        stroke-miterlimit: 10;
      }

      .st2 {
        fill: #0c586d;
        stroke-width: 5px;
      }
    </style>
  </defs>
  <path class="st1" d="M63.28,53.5c2.12-.76-3.1,1.64-3.41-1.78-.63-6.77,13.8-10.57,14.7-2.05.43,4.1-6.09,11.31-7.32,12.63-6.16,6.58-13.33,8.03-18.43,2.92-1.78-1.78-2.76-5.71-2.29-8.91,2.42-16.34,19.84-25.54,30.16-29.4,8.75-3.27,11.87-2.73,16.03-1.77,6.73,1.56,7.16,7.23,7.32,8.1,1.21,6.46-1.11,11.39-2.23,14.88-6.21,19.36-15.34,37.69-24.25,55.96-4.17,8.55-9.98,24.65-22.9,44.69-7.52,11.66-14.73,21.87-20.72,21.64-4.69-.18-6.73-3.97-6.86-8.67-.42-14.89,12.26-30.04,15.06-32.72,15.78-15.12,22.42-21.12,56.43-31.23,17.67-5.25,40.19-19.71,59.69-49.55,2.26-3.46,7.59-12.53,4.87-17.53-1.93-3.55-5.39-4.66-8.84-4.43-12.87.88-19.88,20.47-44,68.95-1.19,2.39-5.54,11.43-10.5,24.89-7.45,20.24-10.78,30.31-9.54,40.31.87,7.02,6.54,9.96,9.37,10.12,6.53.39,10.05,1.14,45.03-33.32,0,0,1.89-1.72,0,0"/>
  <g class="st0">
    <g class="st0">
      <path class="st2" d="M190.81,72.58h2.8l-19.6,98h-2.8l19.6-98Z"/>
      <path class="st2" d="M230.85,72.58h2.8l-19.04,95.34h58.38l-.56,2.66h-61.18l19.6-98h0Z"/>
      <path class="st2" d="M312.05,72.58h35.14c29.26,0,44.94,15.82,44.94,39.2,0,34.02-23.66,58.8-61.04,58.8h-38.64l19.6-98h0ZM331.37,167.92c35.42,0,57.96-23.38,57.96-56.14,0-21.84-14-36.54-42.42-36.54h-32.62l-18.48,92.68h35.56Z"/>
      <path class="st2" d="M429.93,75.24l-8.82,44.24h54.04l-.56,2.66h-54.04l-9.1,45.78h62.44l-.56,2.66h-65.24l19.6-98h63.14l-.56,2.66h-60.34Z"/>
      <path class="st2" d="M584.34,140.62c0,19.18-14.7,29.96-40.6,29.96h-42.14l19.6-98h38.78c17.5,0,28.42,6.72,28.42,19.74,0,15.68-10.36,25.06-24.5,28.14,12.88,1.68,20.44,8.4,20.44,20.16h0ZM581.54,140.9c0-13.44-9.38-18.76-27.58-18.76h-39.9l-9.1,45.78h39.34c23.94,0,37.24-9.66,37.24-27.02h0ZM514.63,119.48h36.54c19.88,0,34.44-9.1,34.44-26.74,0-11.62-9.38-17.5-25.62-17.5h-36.54s-8.82,44.24-8.82,44.24Z"/>
      <path class="st2" d="M659.8,135.86l19.6,34.72h-3.22l-19.32-34.16c-3.08.42-6.3.56-9.66.56h-31.36l-6.72,33.6h-2.8l19.6-98h32.9c20.72,0,32.76,9.38,32.76,26.04,0,21.14-11.9,33.74-31.78,37.24h0ZM688.78,98.62c0-14.98-10.64-23.38-29.82-23.38h-30.8l-11.76,59.08h30.66c26.46,0,41.72-12.04,41.72-35.7Z"/>
      <path class="st2" d="M772.22,141.04h-60.06l-19.6,29.54h-3.36l65.1-98h2.8l25.9,98h-2.94l-7.84-29.54h0ZM771.52,138.38l-16.24-62.16-41.3,62.16h57.54Z"/>
      <path class="st2" d="M899.48,72.58l-19.6,98h-2.38l-53.2-93.38-18.62,93.38h-2.8l19.6-98h2.38l53.2,93.38,18.62-93.38s2.8,0,2.8,0Z"/>
      <path class="st2" d="M936.72,72.58h35.14c29.26,0,44.94,15.82,44.94,39.2,0,34.02-23.66,58.8-61.04,58.8h-38.64l19.6-98ZM956.04,167.92c35.42,0,57.96-23.38,57.96-56.14,0-21.84-14-36.54-42.42-36.54h-32.62l-18.48,92.68h35.56,0Z"/>
      <path class="st2" d="M1068.74,75.24h-36.4l.56-2.66h75.6l-.56,2.66h-36.4l-19.04,95.34h-2.8l19.04-95.34h0Z"/>
      <path class="st2" d="M1141.68,131.38c0-31.36,22.12-59.22,58.94-59.22,14.7,0,26.32,4.48,32.9,12.32l-1.96,1.82c-6.72-7.56-17.08-11.48-31.22-11.48-34.16,0-55.86,25.9-55.86,56.56,0,21.98,14.14,36.96,41.58,36.96,14.42,0,25.9-4.34,34.16-12.04l1.68,2.24c-8.12,7.56-21.42,12.46-36.12,12.46-28.56,0-44.1-15.96-44.1-39.62h0Z"/>
      <path class="st2" d="M1239.12,131.38c0-31.36,22.12-59.22,58.24-59.22,28.56,0,44.1,15.96,44.1,39.62,0,31.36-22.12,59.22-58.24,59.22-28.56,0-44.1-15.96-44.1-39.62ZM1338.66,111.78c0-21.98-14.14-36.96-41.58-36.96-33.46,0-55.16,25.9-55.16,56.56,0,21.98,14.14,36.96,41.58,36.96,33.46,0,55.16-25.9,55.16-56.56Z"/>
      <path class="st2" d="M1442.82,98.62c0,25.2-17.08,38.36-44.38,38.36h-31.36l-6.72,33.6h-2.8l19.6-98h32.9c20.72,0,32.76,9.38,32.76,26.04h0ZM1440.02,98.62c0-14.98-10.64-23.38-29.82-23.38h-30.8l-11.76,59.08h30.66c26.46,0,41.72-12.04,41.72-35.7Z"/>
      <path class="st2" d="M1477.4,75.24l-8.82,44.24h54.04l-.56,2.66h-54.04l-9.1,45.78h62.44l-.56,2.66h-65.24l19.6-98h63.14l-.56,2.66h-60.34,0Z"/>
      <path class="st2" d="M1645.68,72.58l-19.6,98h-2.38l-53.2-93.38-18.62,93.38h-2.8l19.6-98h2.38l53.2,93.38,18.62-93.38s2.8,0,2.8,0Z"/>
      <path class="st2" d="M1759.92,72.58l-19.6,98h-2.8l9.66-48.44h-71.4l-9.66,48.44h-2.8l19.6-98h2.8l-9.38,46.9h71.4l9.38-46.9h2.8Z"/>
      <path class="st2" d="M1843.21,141.04h-60.06l-19.6,29.54h-3.36l65.1-98h2.8l25.9,98h-2.94l-7.84-29.54h0ZM1842.51,138.38l-16.24-62.16-41.3,62.16h57.54Z"/>
      <path class="st2" d="M1963.61,84.62l-1.96,1.82c-6.72-7.7-17.5-11.62-31.92-11.62-34.16,0-55.86,25.9-55.86,56.56,0,21.98,14.14,36.96,41.58,36.96,12.74,0,22.68-4.2,31.22-11.2l6.86-34.58h2.66l-7.14,35.84c-8.26,7.56-20.3,12.6-33.88,12.6-28.56,0-44.1-15.96-44.1-39.62,0-31.36,22.12-59.22,58.94-59.22,14.98,0,27.02,4.62,33.6,12.46h0Z"/>
      <path class="st2" d="M2002.67,75.24l-8.82,44.24h54.04l-.56,2.66h-54.04l-9.1,45.78h62.44l-.56,2.66h-65.24l19.6-98h63.14l-.56,2.66h-60.34,0Z"/>
      <path class="st2" d="M2170.95,72.58l-19.6,98h-2.38l-53.2-93.38-18.62,93.38h-2.8l19.6-98h2.38l53.2,93.38,18.62-93.38s2.8,0,2.8,0Z"/>
    </g>
  </g>
</svg>