<?xml version="1.0" encoding="UTF-8"?>
<svg id="Layer_3" xmlns="http://www.w3.org/2000/svg" version="1.1" viewBox="0 0 1143.28 341.48">
  <!-- Generator: Adobe Illustrator 30.3.0, SVG Export Plug-In . SVG Version: 2.1.3 Build 182)  -->
  <defs>
    <style>
      .st0 {
        fill: #f7f7f7;
      }
    </style>
  </defs>
  <path class="st0" d="M97.9,171.9c-.69,0-1.36-.04-2.07-.08l-.28-.02c-3.71-.21-9.63-3.92-10.54-11.21-1.25-10.07,1.81-19.7,9.61-40.9,4.74-12.87,8.97-21.79,10.28-24.46-3.8,1.73-7.17,2.93-9.97,3.76-8.49,2.52-15.27,4.8-20.9,7.01-.81,1.73-1.69,3.72-2.67,5.96-4.12,9.35-9.76,22.16-19.65,37.49-7.64,11.85-15.08,22.48-21.82,22.21-4.88-.19-7.9-3.88-8.06-9.88-.43-15.11,12.28-30.63,15.45-33.66,11.58-11.09,18.13-17.37,34.92-24.09.08-.17.16-.33.24-.5l1.41-2.89c8.32-17.04,16.92-34.65,22.77-52.9.17-.52.36-1.07.56-1.65,1.16-3.31,2.6-7.43,1.63-12.61l-.04-.26c-.56-3.7-2.69-6.01-6.33-6.85-3.7-.85-6.62-1.53-15.31,1.72-8.01,2.99-26.89,11.76-29.36,28.41-.42,2.84.45,6.36,1.94,7.84,1.83,1.83,3.97,2.77,6.31,2.71,3.32-.05,6.99-2.04,10.32-5.6,3.67-3.94,7.26-9.07,6.99-11.65-.41-3.84-4-3.9-5.53-3.75-3.37.33-6.95,2.7-6.68,5.55.04.46.2.56.27.6.37.24,1.13.17,1.61.07.55-.19,1.25-.38,1.77.29l.08,1.45c-.2.31-.62.52-1.11.65,0,0-.02,0-.02,0h0c-.91.23-2.07.21-2.64.07-1.41-.34-2.3-1.41-2.44-2.91-.42-4.52,4.31-7.81,8.93-8.27,4.59-.46,7.83,1.89,8.26,5.98.47,4.51-5.73,11.56-7.65,13.61-3.8,4.06-8.1,6.33-12.11,6.39-3,.06-5.83-1.14-8.12-3.44-2.04-2.04-3.18-6.33-2.64-9.97,2.66-17.97,22.54-27.24,30.96-30.39,8.77-3.28,12.18-2.87,16.75-1.82,3.26.75,7.33,2.91,8.24,8.92l.03.18c1.09,5.84-.54,10.5-1.73,13.9-.2.56-.38,1.09-.54,1.59-5.91,18.43-14.55,36.12-22.91,53.24l-.47.96c5.17-1.93,11.25-3.93,18.59-6.11,3.39-1.01,7.64-2.57,12.48-5,3.45-6.97,6.56-13.35,9.34-19.06,16.09-33.05,22.75-46.72,34.17-47.5,4.52-.3,8.08,1.5,10.02,5.08,2.91,5.35-1.83,14.08-4.92,18.81-16.18,24.75-33.49,37.74-46.74,44.52-.38.77-.77,1.55-1.16,2.34-.85,1.7-5.34,10.91-10.45,24.77-7.65,20.79-10.65,30.21-9.47,39.72.8,6.45,5.97,8.9,8.2,9.03l.29.02c5.85.35,9.72.59,43.8-32.98l.04-.03h0s.84-.77.84-.77l1.68,1.85-.84.76c-31.19,30.73-37.72,33.74-43.59,33.74ZM70.65,107.38c-14.6,6.21-20.92,12.27-31.65,22.54-3.01,2.88-15.08,17.59-14.68,31.78.07,2.71.91,7.27,5.66,7.46,5.47.2,12.98-10.77,19.62-21.07,9.78-15.17,15.38-27.87,19.46-37.15.56-1.27,1.08-2.46,1.58-3.57ZM151.16,27.5c-.27,0-.53,0-.79.03-9.97.68-16.45,13.98-32.09,46.1-2.36,4.85-4.96,10.18-7.81,15.96,12.48-7.01,28.05-19.57,42.74-42.03,1.75-2.68,7.26-11.76,4.82-16.25-1.67-3.07-4.52-3.81-6.87-3.81Z"/>
  <g>
    <path class="st0" d="M190.81,72.58h2.8l-19.6,98h-2.8l19.6-98Z"/>
    <path class="st0" d="M174.11,170.71h-3.05l.03-.15,19.62-98.1h3.05l-.03.15-19.62,98.1ZM171.36,170.46h2.54l19.55-97.75h-2.54l-19.55,97.75Z"/>
  </g>
  <g>
    <path class="st0" d="M230.85,72.58h2.8l-19.04,95.34h58.38l-.56,2.66h-61.18l19.6-98h0Z"/>
    <path class="st0" d="M272.53,170.71h-61.43l.03-.15,19.62-98.1h3.05l-.03.15-19.01,95.19h58.38l-.61,2.91ZM211.4,170.46h60.93l.51-2.41h-58.38l.03-.15,19.01-95.19h-2.54l-19.55,97.75Z"/>
  </g>
  <g>
    <path class="st0" d="M312.05,72.58h35.14c29.26,0,44.94,15.82,44.94,39.2,0,34.02-23.66,58.8-61.04,58.8h-38.64l19.6-98h0ZM331.37,167.92c35.42,0,57.96-23.38,57.96-56.14,0-21.84-14-36.54-42.42-36.54h-32.62l-18.48,92.68h35.56Z"/>
    <path class="st0" d="M331.09,170.71h-38.79l.03-.15,19.62-98.1h35.24c14.1,0,25.7,3.76,33.53,10.86,7.55,6.85,11.54,16.69,11.54,28.46,0,8.43-1.44,16.37-4.29,23.59-2.81,7.14-6.94,13.42-12.25,18.66-11.06,10.91-26.49,16.68-44.63,16.68ZM292.6,170.46h38.49c18.07,0,33.44-5.74,44.45-16.61,5.29-5.22,9.39-11.47,12.19-18.58,2.83-7.19,4.27-15.09,4.27-23.49,0-11.69-3.96-21.47-11.46-28.27-7.78-7.07-19.32-10.8-33.36-10.8h-35.04l-19.55,97.75ZM331.37,168.04h-35.71l18.53-92.93h32.72c13.81,0,24.56,3.4,31.95,10.11,6.93,6.29,10.59,15.48,10.59,26.55,0,16.29-5.44,30.28-15.73,40.44-10.48,10.35-25.12,15.82-42.35,15.82ZM295.96,167.79h35.41c34.59,0,57.83-22.51,57.83-56.02,0-23.14-15.42-36.41-42.29-36.41h-32.52l-18.43,92.43Z"/>
  </g>
  <g>
    <path class="st0" d="M429.93,75.24l-8.82,44.24h54.04l-.56,2.66h-54.04l-9.1,45.78h62.44l-.56,2.66h-65.24l19.6-98h63.14l-.56,2.66h-60.34Z"/>
    <path class="st0" d="M473.43,170.71h-65.49l.03-.15,19.62-98.1h63.4l-.61,2.91h-60.34l-8.77,43.99h54.04l-.61,2.91h-54.04l-9.05,45.53h62.44l-.61,2.91ZM408.24,170.46h64.99l.51-2.41h-62.44l.03-.15,9.12-45.88h54.04l.51-2.41h-54.04l8.87-44.49h60.34l.51-2.41h-62.88l-19.55,97.75Z"/>
  </g>
  <g>
    <path class="st0" d="M584.34,140.62c0,19.18-14.7,29.96-40.6,29.96h-42.14l19.6-98h38.78c17.5,0,28.42,6.72,28.42,19.74,0,15.68-10.36,25.06-24.5,28.14,12.88,1.68,20.44,8.4,20.44,20.16h0ZM581.54,140.9c0-13.44-9.38-18.76-27.58-18.76h-39.9l-9.1,45.78h39.34c23.94,0,37.24-9.66,37.24-27.02h0ZM514.63,119.48h36.54c19.88,0,34.44-9.1,34.44-26.74,0-11.62-9.38-17.5-25.62-17.5h-36.54s-8.82,44.24-8.82,44.24Z"/>
    <path class="st0" d="M543.74,170.71h-42.29l.03-.15,19.62-98.1h38.88c18.14,0,28.55,7.24,28.55,19.86,0,14.35-8.71,24.56-23.93,28.11,13,1.9,19.87,8.87,19.87,20.19,0,9.58-3.58,17.07-10.64,22.27-7.04,5.18-17.16,7.81-30.09,7.81ZM501.75,170.46h41.99c12.87,0,22.95-2.61,29.94-7.76,6.99-5.15,10.54-12.58,10.54-22.07,0-11.37-7.03-18.3-20.33-20.04l-.71-.09.7-.15c15.51-3.38,24.4-13.59,24.4-28.02,0-6.33-2.55-11.26-7.59-14.65-4.9-3.3-11.87-4.97-20.7-4.97h-38.68l-19.55,97.75ZM544.3,168.04h-39.49l.03-.15,9.12-45.88h40c9.41,0,16.18,1.43,20.68,4.36,4.72,3.08,7.02,7.83,7.02,14.52,0,8.68-3.26,15.45-9.69,20.12-6.42,4.66-15.73,7.02-27.67,7.02ZM505.11,167.79h39.19c11.89,0,21.15-2.35,27.52-6.98,6.36-4.62,9.59-11.32,9.59-19.92,0-12.89-8.47-18.63-27.46-18.63h-39.8l-9.05,45.53ZM551.17,119.6h-36.69l8.87-44.49h36.64c8.2,0,14.58,1.48,18.97,4.41,4.5,3,6.78,7.45,6.78,13.21,0,8.44-3.39,15.39-9.82,20.09-6.06,4.44-14.62,6.78-24.75,6.78ZM514.78,119.35h36.39c10.07,0,18.58-2.33,24.6-6.73,6.35-4.65,9.71-11.52,9.71-19.88,0-5.67-2.24-10.05-6.66-13-4.34-2.9-10.68-4.37-18.83-4.37h-36.44l-8.77,43.99Z"/>
  </g>
  <g>
    <path class="st0" d="M659.8,135.86l19.6,34.72h-3.22l-19.32-34.16c-3.08.42-6.3.56-9.66.56h-31.36l-6.72,33.6h-2.8l19.6-98h32.9c20.72,0,32.76,9.38,32.76,26.04,0,21.14-11.9,33.74-31.78,37.24h0ZM688.78,98.62c0-14.98-10.64-23.38-29.82-23.38h-30.8l-11.76,59.08h30.66c26.46,0,41.72-12.04,41.72-35.7Z"/>
    <path class="st0" d="M679.61,170.71h-3.51l-.04-.06-19.28-34.09c-2.79.38-5.84.55-9.59.55h-31.26l-6.72,33.6h-3.05l.03-.15,19.62-98.1h33c20.9,0,32.88,9.54,32.88,26.17,0,20.42-11.26,33.67-31.71,37.33l19.62,34.75ZM676.25,170.46h2.93l-19.58-34.69.17-.03c10.03-1.77,17.86-5.79,23.27-11.96,5.58-6.36,8.4-14.83,8.4-25.15,0-16.47-11.89-25.92-32.63-25.92h-32.8l-19.55,97.75h2.54l6.72-33.6h31.46c3.78,0,6.85-.18,9.64-.56h.08s.04.06.04.06l19.28,34.1ZM647.06,134.44h-30.81l.03-.15,11.78-59.18h30.9c9.56,0,17.03,2.05,22.18,6.1,5.15,4.05,7.77,9.9,7.77,17.41,0,11.69-3.7,20.71-10.98,26.82-7.13,5.98-17.52,9.01-30.86,9.01ZM616.55,134.19h30.51c13.29,0,23.62-3.01,30.7-8.95,7.23-6.06,10.89-15.01,10.89-26.63,0-7.42-2.58-13.21-7.67-17.21-5.11-4.01-12.52-6.05-22.03-6.05h-30.7l-11.71,58.83Z"/>
  </g>
  <g>
    <path class="st0" d="M772.22,141.04h-60.06l-19.6,29.54h-3.36l65.1-98h2.8l25.9,98h-2.94l-7.84-29.54h0ZM771.52,138.38l-16.24-62.16-41.3,62.16h57.54Z"/>
    <path class="st0" d="M783.16,170.71h-3.2l-.03-.09-7.81-29.45h-59.9l-19.6,29.54h-3.66l.13-.19,65.14-98.06h2.96l.02.09,25.94,98.16ZM780.16,170.46h2.68l-25.83-97.75h-2.64l-64.93,97.75h3.06l19.6-29.54h60.22l.03.09,7.81,29.45ZM771.68,138.5h-57.93l.13-.19,41.46-62.39.07.27,16.28,62.32ZM714.21,138.25h57.14l-16.13-61.73-41.02,61.73Z"/>
  </g>
  <g>
    <path class="st0" d="M899.48,72.58l-19.6,98h-2.38l-53.2-93.38-18.62,93.38h-2.8l19.6-98h2.38l53.2,93.38,18.62-93.38s2.8,0,2.8,0Z"/>
    <path class="st0" d="M879.98,170.71h-2.55l-.04-.06-53.04-93.09-18.57,93.15h-3.05l.03-.15,19.62-98.1h2.55l.04.06,53.03,93.09,18.57-93.15h3.06l-.03.15-19.62,98.1ZM877.57,170.46h2.21l19.55-97.75h-2.55l-18.67,93.61-.17-.29-53.16-93.32h-2.21l-19.55,97.75h2.54l18.67-93.61.17.29,53.16,93.32Z"/>
  </g>
  <g>
    <path class="st0" d="M936.72,72.58h35.14c29.26,0,44.94,15.82,44.94,39.2,0,34.02-23.66,58.8-61.04,58.8h-38.64l19.6-98ZM956.04,167.92c35.42,0,57.96-23.38,57.96-56.14,0-21.84-14-36.54-42.42-36.54h-32.62l-18.48,92.68h35.56,0Z"/>
    <path class="st0" d="M955.76,170.71h-38.79l.03-.15,19.62-98.1h35.24c14.1,0,25.7,3.76,33.53,10.86,7.55,6.85,11.54,16.69,11.54,28.46,0,8.43-1.44,16.37-4.29,23.59-2.81,7.14-6.94,13.42-12.25,18.66-11.06,10.91-26.49,16.68-44.62,16.68ZM917.27,170.46h38.49c18.07,0,33.44-5.74,44.45-16.61,5.29-5.22,9.39-11.47,12.19-18.58,2.83-7.19,4.27-15.09,4.27-23.49,0-11.69-3.96-21.47-11.46-28.27-7.79-7.07-19.32-10.8-33.36-10.8h-35.04l-19.55,97.75ZM956.04,168.04h-35.71l.03-.15,18.5-92.78h32.72c13.81,0,24.56,3.4,31.95,10.11,6.93,6.29,10.59,15.48,10.59,26.55,0,16.29-5.44,30.28-15.73,40.44-10.48,10.35-25.12,15.82-42.35,15.82ZM920.63,167.79h35.41c34.59,0,57.83-22.51,57.83-56.02,0-23.14-15.42-36.41-42.29-36.41h-32.52l-18.43,92.43Z"/>
  </g>
  <g>
    <path class="st0" d="M1068.74,75.24h-36.4l.56-2.66h75.6l-.56,2.66h-36.4l-19.04,95.34h-2.8l19.04-95.34h0Z"/>
    <path class="st0" d="M1052.6,170.71h-3.05l.03-.15,19.01-95.19h-36.4l.61-2.91h75.86l-.61,2.91h-36.4l-19.04,95.34ZM1049.85,170.46h2.54l19.04-95.34h36.4l.51-2.41h-75.34l-.51,2.41h36.4l-.03.15-19.01,95.19Z"/>
  </g>
  <g>
    <path class="st0" d="M28.62,264.93c0-31.36,22.12-59.22,58.94-59.22,14.7,0,26.32,4.48,32.9,12.32l-1.96,1.82c-6.72-7.56-17.08-11.48-31.22-11.48-34.16,0-55.86,25.9-55.86,56.56,0,21.98,14.14,36.96,41.58,36.96,14.42,0,25.9-4.34,34.16-12.04l1.68,2.24c-8.12,7.56-21.42,12.46-36.12,12.46-28.56,0-44.1-15.96-44.1-39.62Z"/>
    <path class="st0" d="M72.72,304.67c-13.79,0-25.14-3.79-32.85-10.97-7.44-6.94-11.38-16.89-11.38-28.77,0-15.86,5.57-30.58,15.7-41.46,10.89-11.7,25.89-17.89,43.37-17.89,14.58,0,26.3,4.39,33,12.37l.08.09-2.14,1.99-.08-.1c-6.75-7.59-17.22-11.44-31.13-11.44-8.27,0-16.04,1.52-23.09,4.52-6.7,2.85-12.61,6.96-17.56,12.23-9.73,10.34-15.09,24.44-15.09,39.69,0,11.04,3.62,20.25,10.46,26.63,7.16,6.68,17.88,10.2,30.99,10.2,14.06,0,25.53-4.04,34.07-12.01l.1-.09,1.83,2.44-.08.08c-8.4,7.82-21.94,12.49-36.2,12.49ZM87.56,205.83c-17.41,0-32.34,6.16-43.19,17.81-10.08,10.83-15.63,25.49-15.63,41.28,0,11.82,3.91,21.7,11.3,28.59,7.65,7.13,18.95,10.9,32.67,10.9s27.59-4.62,35.95-12.35l-1.53-2.04c-8.58,7.95-20.07,11.98-34.14,11.98-13.18,0-23.96-3.55-31.17-10.27-6.9-6.43-10.54-15.7-10.54-26.81,0-15.32,5.38-29.47,15.15-39.86,4.98-5.29,10.91-9.42,17.64-12.29,7.08-3.01,14.88-4.54,23.19-4.54,13.92,0,24.43,3.84,31.23,11.43l1.78-1.65c-6.66-7.86-18.27-12.18-32.73-12.18Z"/>
  </g>
  <g>
    <path class="st0" d="M126.06,264.93c0-31.36,22.12-59.22,58.24-59.22,28.56,0,44.1,15.96,44.1,39.62,0,31.36-22.12,59.22-58.24,59.22-28.56,0-44.1-15.96-44.1-39.62ZM225.6,245.34c0-21.98-14.14-36.96-41.58-36.96-33.46,0-55.16,25.9-55.16,56.56,0,21.98,14.14,36.96,41.58,36.96,33.46,0,55.16-25.9,55.16-56.56Z"/>
    <path class="st0" d="M170.16,304.67c-13.79,0-25.14-3.79-32.85-10.97-7.44-6.94-11.38-16.89-11.38-28.77,0-15.83,5.54-30.55,15.61-41.45,10.8-11.7,25.59-17.89,42.76-17.89,13.79,0,25.14,3.79,32.85,10.97,7.44,6.94,11.38,16.89,11.38,28.77,0,15.83-5.54,30.55-15.61,41.46-10.8,11.7-25.59,17.89-42.76,17.89ZM184.3,205.83c-17.1,0-31.82,6.16-42.57,17.81-10.02,10.86-15.54,25.52-15.54,41.29,0,11.82,3.91,21.7,11.3,28.59,7.65,7.13,18.95,10.9,32.67,10.9,17.1,0,31.82-6.16,42.57-17.81,10.02-10.86,15.54-25.52,15.54-41.29,0-11.82-3.91-21.7-11.3-28.59-7.65-7.13-18.95-10.9-32.67-10.9ZM170.44,302.03c-13.18,0-23.96-3.55-31.17-10.27-6.9-6.43-10.54-15.7-10.54-26.81,0-15.28,5.35-29.44,15.07-39.86,10.11-10.85,24.4-16.82,40.22-16.82,13.18,0,23.96,3.55,31.17,10.27,6.9,6.43,10.54,15.7,10.54,26.81,0,15.28-5.35,29.44-15.07,39.86-10.11,10.85-24.4,16.82-40.22,16.82ZM184.02,208.5c-15.75,0-29.97,5.95-40.04,16.74-9.67,10.38-15,24.47-15,39.69,0,11.04,3.62,20.25,10.46,26.63,7.16,6.68,17.88,10.2,30.99,10.2,15.75,0,29.97-5.95,40.04-16.74,9.67-10.38,15-24.47,15-39.69,0-11.04-3.62-20.25-10.46-26.63-7.16-6.68-17.88-10.2-30.99-10.2Z"/>
  </g>
  <g>
    <path class="st0" d="M329.76,232.17c0,25.2-17.08,38.36-44.38,38.36h-31.36l-6.72,33.6h-2.8l19.6-98h32.9c20.72,0,32.76,9.38,32.76,26.04h0ZM326.96,232.17c0-14.98-10.64-23.38-29.82-23.38h-30.8l-11.76,59.08h30.66c26.46,0,41.72-12.04,41.72-35.7Z"/>
    <path class="st0" d="M247.4,304.25h-3.05l.03-.15,19.62-98.1h33c20.9,0,32.88,9.54,32.88,26.17,0,24.46-16.22,38.49-44.5,38.49h-31.26l-6.72,33.6ZM244.65,304h2.54l6.72-33.6h31.46c28.12,0,44.25-13.94,44.25-38.24,0-16.47-11.9-25.92-32.63-25.92h-32.8l-19.55,97.75ZM285.24,268h-30.81l.03-.15,11.78-59.18h30.9c9.56,0,17.03,2.05,22.18,6.1,5.15,4.05,7.77,9.9,7.77,17.41,0,11.69-3.69,20.71-10.98,26.82-7.13,5.98-17.52,9.01-30.86,9.01ZM254.73,267.75h30.51c13.29,0,23.62-3.01,30.7-8.95,7.23-6.06,10.89-15.01,10.89-26.63,0-7.42-2.58-13.21-7.67-17.21-5.11-4.01-12.52-6.05-22.02-6.05h-30.7l-11.71,58.83Z"/>
  </g>
  <g>
    <path class="st0" d="M364.34,208.79l-8.82,44.24h54.04l-.56,2.66h-54.04l-9.1,45.78h62.44l-.56,2.66h-65.24l19.6-98h63.14l-.56,2.66h-60.34Z"/>
    <path class="st0" d="M407.84,304.25h-65.49l.03-.15,19.62-98.1h63.4l-.61,2.91h-60.34l-8.77,43.99h54.04l-.61,2.91h-54.04l-9.05,45.53h62.44l-.61,2.91ZM342.65,304h64.99l.51-2.41h-62.44l.03-.15,9.12-45.88h54.04l.51-2.41h-54.04l8.87-44.49h60.34l.51-2.41h-62.88l-19.55,97.75Z"/>
  </g>
  <g>
    <path class="st0" d="M532.62,206.13l-19.6,98h-2.38l-53.2-93.38-18.62,93.38h-2.8l19.6-98h2.38l53.2,93.38,18.62-93.38h2.8,0Z"/>
    <path class="st0" d="M513.12,304.25h-2.56l-.04-.06-53.03-93.09-18.57,93.15h-3.05l.03-.15,19.62-98.1h2.56l.04.06,53.03,93.09,18.57-93.15h3.05l-.03.15-19.62,98.1ZM510.71,304h2.2l19.55-97.75h-2.54l-18.67,93.61-.17-.29-53.16-93.32h-2.2l-19.55,97.75h2.54l18.67-93.61.17.29,53.16,93.32Z"/>
  </g>
  <g>
    <path class="st0" d="M646.86,206.13l-19.6,98h-2.8l9.66-48.44h-71.4l-9.66,48.44h-2.8l19.6-98h2.8l-9.38,46.9h71.4l9.38-46.9h2.8Z"/>
    <path class="st0" d="M627.36,304.25h-3.05l.03-.15,9.63-48.29h-71.15l-9.66,48.44h-3.06l.03-.15,19.62-98.1h3.06l-.03.15-9.35,46.75h71.15l9.38-46.9h3.06l-.03.15-19.62,98.1ZM624.61,304h2.54l19.55-97.75h-2.55l-9.38,46.9h-71.65l.03-.15,9.35-46.75h-2.55l-19.55,97.75h2.55l9.66-48.44h71.66l-.03.15-9.63,48.29Z"/>
  </g>
  <g>
    <path class="st0" d="M730.16,274.59h-60.06l-19.6,29.54h-3.36l65.1-98h2.8l25.9,98h-2.94l-7.84-29.54ZM729.46,271.93l-16.24-62.16-41.3,62.16h57.54Z"/>
    <path class="st0" d="M741.1,304.25h-3.2l-.03-.09-7.81-29.45h-59.9l-19.6,29.54h-3.66l.13-.19,65.14-98.06h2.96l.02.09,25.94,98.16ZM738.1,304h2.68l-25.83-97.75h-2.64l-64.93,97.75h3.06l19.6-29.54h60.22l.03.09,7.81,29.45ZM729.62,272.05h-57.94l.13-.19,41.46-62.39.07.27,16.28,62.32ZM672.15,271.8h57.14l-16.13-61.73-41.02,61.73Z"/>
  </g>
  <g>
    <path class="st0" d="M850.55,218.17l-1.96,1.82c-6.72-7.7-17.5-11.62-31.92-11.62-34.16,0-55.86,25.9-55.86,56.56,0,21.98,14.14,36.96,41.58,36.96,12.74,0,22.68-4.2,31.22-11.2l6.86-34.58h2.66l-7.14,35.84c-8.26,7.56-20.3,12.6-33.88,12.6-28.56,0-44.1-15.96-44.1-39.62,0-31.36,22.12-59.22,58.94-59.22,14.98,0,27.02,4.62,33.6,12.46h0Z"/>
    <path class="st0" d="M802.11,304.67c-13.79,0-25.14-3.79-32.85-10.97-7.44-6.94-11.38-16.89-11.38-28.77,0-15.86,5.57-30.58,15.7-41.46,10.89-11.7,25.89-17.89,43.37-17.89,14.74,0,27.03,4.56,33.7,12.5l.08.09-2.14,1.99-.08-.1c-6.7-7.68-17.41-11.58-31.83-11.58-8.27,0-16.04,1.52-23.09,4.52-6.7,2.85-12.61,6.96-17.56,12.23-9.73,10.34-15.09,24.44-15.09,39.69,0,11.04,3.62,20.25,10.46,26.63,7.16,6.68,17.88,10.2,30.99,10.2,11.77,0,21.95-3.65,31.11-11.14l6.87-34.64h2.92l-.03.15-7.15,35.88-.03.03c-8.77,8.03-21.15,12.63-33.96,12.63ZM816.95,205.83c-17.41,0-32.34,6.16-43.19,17.81-10.08,10.83-15.63,25.49-15.63,41.28,0,11.82,3.91,21.7,11.3,28.59,7.65,7.13,18.95,10.9,32.67,10.9,12.74,0,25.04-4.57,33.77-12.54l7.1-35.65h-2.41l-6.85,34.52-.04.03c-9.22,7.55-19.46,11.23-31.3,11.23-13.18,0-23.96-3.55-31.17-10.27-6.9-6.43-10.54-15.7-10.54-26.81,0-15.32,5.38-29.47,15.15-39.86,4.98-5.29,10.91-9.42,17.64-12.29,7.08-3.01,14.88-4.54,23.19-4.54,14.43,0,25.17,3.89,31.93,11.57l1.78-1.65c-6.64-7.83-18.81-12.32-33.43-12.32Z"/>
  </g>
  <g>
    <path class="st0" d="M889.61,208.79l-8.82,44.24h54.04l-.56,2.66h-54.04l-9.1,45.78h62.44l-.56,2.66h-65.24l19.6-98h63.14l-.56,2.66h-60.34Z"/>
    <path class="st0" d="M933.11,304.25h-65.49l.03-.15,19.62-98.1h63.4l-.61,2.91h-60.34l-8.77,43.99h54.04l-.61,2.91h-54.04l-9.05,45.53h62.44l-.61,2.91ZM867.92,304h64.99l.51-2.41h-62.44l.03-.15,9.12-45.88h54.04l.51-2.41h-54.04l.03-.15,8.84-44.34h60.34l.51-2.41h-62.88l-19.55,97.75Z"/>
  </g>
  <g>
    <path class="st0" d="M1057.89,206.13l-19.6,98h-2.38l-53.2-93.38-18.62,93.38h-2.8l19.6-98h2.38l53.2,93.38,18.62-93.38h2.8Z"/>
    <path class="st0" d="M1038.39,304.25h-2.55l-.04-.06-53.04-93.09-18.57,93.15h-3.05l.03-.15,19.62-98.1h2.55l.04.06,53.04,93.09,18.57-93.15h3.05l-.03.15-19.62,98.1ZM1035.98,304h2.21l19.55-97.75h-2.54l-18.67,93.61-.17-.29-53.16-93.32h-2.21l-19.55,97.75h2.54l18.67-93.61.17.29,53.16,93.32Z"/>
  </g>
</svg>