<?xml version="1.0" encoding="UTF-8"?>
<svg id="Layer_3" xmlns="http://www.w3.org/2000/svg" version="1.1" viewBox="0 0 2202.84 195.04">
  <!-- Generator: Adobe Illustrator 30.3.0, SVG Export Plug-In . SVG Version: 2.1.3 Build 182)  -->
  <defs>
    <style>
      .st0 {
        fill: #0c586d;
      }

      .st1 {
        isolation: isolate;
      }

      .st2 {
        fill: #f7f7f7;
      }
    </style>
  </defs>
  <path class="st2" d="M97.68,173.63c-.65,0-1.29-.03-1.96-.07l-.28-.02c-4.42-.25-11.13-4.37-12.17-12.75-1.36-10.98,2.39-21.85,9.7-41.71,3.33-9.03,6.36-16.04,8.38-20.46-2.18.85-4.17,1.52-5.93,2.04-8.12,2.41-14.66,4.59-20.1,6.71-.72,1.56-1.5,3.33-2.36,5.28-4.14,9.4-9.82,22.28-19.78,37.74-8.23,12.76-15.67,23.32-23.36,23.01-5.82-.22-9.55-4.66-9.74-11.58-.45-15.9,12.49-31.63,15.98-34.97,11.29-10.82,18.07-17.32,34.83-24.15l1.38-2.82c8.29-16.98,16.86-34.54,22.68-52.67.17-.53.37-1.1.58-1.7,1.09-3.11,2.45-6.99,1.56-11.71l-.05-.32c-.29-1.89-1.12-4.51-5-5.41-3.54-.82-6.1-1.41-14.3,1.66-7.71,2.89-25.91,11.3-28.24,27.03-.36,2.45.47,5.37,1.44,6.35,1.49,1.49,3.19,2.22,5.05,2.2,2.85-.05,6.07-1.84,9.07-5.05,4.28-4.59,6.68-8.82,6.53-10.27-.07-.62-.27-2.52-3.62-2.19-2.16.21-4.2,1.39-4.88,2.65,1.28-.25,2.29.09,3.04,1.03l.18,3.49c-1.31,2.05-4.99,1.65-5.66,1.49-2.15-.52-3.56-2.19-3.77-4.46-.52-5.58,5.04-9.63,10.5-10.17,5.55-.55,9.64,2.48,10.18,7.53.52,4.92-4.86,11.5-8.11,14.99-4.19,4.48-8.81,6.88-13.36,6.95-3.49.06-6.75-1.31-9.39-3.95-2.43-2.43-3.75-7.26-3.13-11.46,2.8-18.9,23.37-28.52,32.08-31.77,9.2-3.44,13.01-2.98,17.76-1.88,3.1.72,8.47,3.02,9.58,10.36l.02.13c1.18,6.29-.54,11.2-1.8,14.79-.19.55-.37,1.06-.53,1.55-5.61,17.5-13.65,34.3-21.59,50.57,4.28-1.5,9.11-3.05,14.64-4.7,3.19-.95,7.16-2.4,11.68-4.62,3.35-6.76,6.36-12.96,9.07-18.52,16.4-33.69,23.19-47.63,35.62-48.48,5.16-.34,9.42,1.84,11.68,5.99,3.18,5.84-.96,14.43-4.99,20.6-16.16,24.73-33.49,37.88-46.89,44.86-.3.61-.6,1.22-.91,1.83-.84,1.69-5.3,10.82-10.37,24.59-7.55,20.51-10.51,29.77-9.38,38.9.68,5.47,5.05,7.41,6.56,7.49l.29.02c5.18.32,8.94.55,42.46-32.48l.09-.08.84-.76,4.04,4.44-.8.72c-31.13,30.67-37.92,34.22-45.03,34.22ZM67.2,110.87c-11.52,5.5-17.51,11.24-26.98,20.32-2.4,2.3-14.52,16.84-14.14,30.47.1,3.72,1.44,5.66,3.98,5.76.03,0,.07,0,.1,0,4.91,0,13.73-13.67,17.99-20.27,9.49-14.72,15.02-27.12,19.06-36.28ZM151.17,29.25c-.22,0-.45,0-.68.02-8.96.61-15.75,14.56-30.63,45.12-1.62,3.32-3.34,6.86-5.18,10.61,11.29-7.31,24.5-19.17,37.07-38.41,4.11-6.3,6.02-12.11,4.75-14.46-1.04-1.92-2.83-2.89-5.32-2.89ZM62.29,50.73c-1.06.59-1.82,2.01-1.37,3.48.49,1.6,2.08,2.34,3.37,2.09l-2-5.57Z"/>
  <g class="st1">
    <g class="st1">
      <g>
        <path class="st0" d="M190.81,72.58h2.8l-19.6,98h-2.8l19.6-98Z"/>
        <polygon class="st2" points="176.06 173.08 168.16 173.08 188.76 70.08 196.66 70.08 176.06 173.08"/>
      </g>
      <g>
        <path class="st0" d="M230.85,72.58h2.8l-19.04,95.34h58.38l-.56,2.66h-61.18l19.6-98h0Z"/>
        <polygon class="st2" points="274.46 173.08 208.2 173.08 228.8 70.08 236.7 70.08 217.66 165.42 276.07 165.42 274.46 173.08"/>
      </g>
      <g>
        <path class="st0" d="M312.05,72.58h35.14c29.26,0,44.94,15.82,44.94,39.2,0,34.02-23.66,58.8-61.04,58.8h-38.64l19.6-98h0ZM331.37,167.92c35.42,0,57.96-23.38,57.96-56.14,0-21.84-14-36.54-42.42-36.54h-32.62l-18.48,92.68h35.56Z"/>
        <path class="st2" d="M331.09,173.08h-41.69l20.6-103h37.19c29.26,0,47.44,15.98,47.44,41.7,0,17.36-6.12,32.96-17.25,43.94-11.51,11.36-27.52,17.36-46.29,17.36ZM298.86,165.42h32.51c33.17,0,55.46-21.56,55.46-53.64,0-21.63-14.55-34.04-39.92-34.04h-30.57l-17.48,87.68Z"/>
      </g>
      <g>
        <path class="st0" d="M429.93,75.24l-8.82,44.24h54.04l-.56,2.66h-54.04l-9.1,45.78h62.44l-.56,2.66h-65.24l19.6-98h63.14l-.56,2.66h-60.34Z"/>
        <polygon class="st2" points="475.36 173.08 405.04 173.08 425.64 70.08 493.91 70.08 492.3 77.74 431.98 77.74 424.16 116.98 478.23 116.98 476.62 124.64 422.6 124.64 414.5 165.42 476.97 165.42 475.36 173.08"/>
      </g>
      <g>
        <path class="st0" d="M584.34,140.62c0,19.18-14.7,29.96-40.6,29.96h-42.14l19.6-98h38.78c17.5,0,28.42,6.72,28.42,19.74,0,15.68-10.36,25.06-24.5,28.14,12.88,1.68,20.44,8.4,20.44,20.16h0ZM581.54,140.9c0-13.44-9.38-18.76-27.58-18.76h-39.9l-9.1,45.78h39.34c23.94,0,37.24-9.66,37.24-27.02h0ZM514.63,119.48h36.54c19.88,0,34.44-9.1,34.44-26.74,0-11.62-9.38-17.5-25.62-17.5h-36.54s-8.82,44.24-8.82,44.24Z"/>
        <path class="st2" d="M543.74,173.08h-45.19l20.6-103h40.83c19.65,0,30.92,8.11,30.92,22.24,0,12.67-6.58,22.61-17.99,27.8,9.05,3.54,13.93,10.6,13.93,20.5,0,20.63-15.71,32.46-43.1,32.46ZM508.01,165.42h36.29c12.97,0,34.74-3.19,34.74-24.52,0-11.4-7.5-16.26-25.08-16.26h-37.85l-8.11,40.78ZM517.68,116.98h33.49c20,0,31.94-9.06,31.94-24.24,0-12.4-12.57-15-23.12-15h-34.49l-7.82,39.24Z"/>
      </g>
      <g>
        <path class="st0" d="M659.8,135.86l19.6,34.72h-3.22l-19.32-34.16c-3.08.42-6.3.56-9.66.56h-31.36l-6.72,33.6h-2.8l19.6-98h32.9c20.72,0,32.76,9.38,32.76,26.04,0,21.14-11.9,33.74-31.78,37.24h0ZM688.78,98.62c0-14.98-10.64-23.38-29.82-23.38h-30.8l-11.76,59.08h30.66c26.46,0,41.72-12.04,41.72-35.7Z"/>
        <path class="st2" d="M683.68,173.08h-8.96l-19.22-33.98c-2.46.26-5.14.38-8.3.38h-29.31l-6.72,33.6h-7.9l20.6-103h34.95c22.08,0,35.26,10.67,35.26,28.54,0,20.59-10.76,34.32-30.42,39l20.02,35.46ZM619.45,131.82h27.61c17.89,0,39.22-5.76,39.22-33.2,0-9.53-4.74-20.88-27.32-20.88h-28.75l-10.76,54.08Z"/>
      </g>
      <g>
        <path class="st0" d="M772.22,141.04h-60.06l-19.6,29.54h-3.36l65.1-98h2.8l25.9,98h-2.94l-7.84-29.54h0ZM771.52,138.38l-16.24-62.16-41.3,62.16h57.54Z"/>
        <path class="st2" d="M786.25,173.08h-8.11l-7.84-29.54h-56.8l-19.6,29.54h-9.36l68.42-103h6.07l27.22,103ZM718.64,135.88h49.64l-14.01-53.63-35.63,53.63Z"/>
      </g>
      <g>
        <path class="st0" d="M899.48,72.58l-19.6,98h-2.38l-53.2-93.38-18.62,93.38h-2.8l19.6-98h2.38l53.2,93.38,18.62-93.38s2.8,0,2.8,0Z"/>
        <polygon class="st2" points="881.93 173.08 876.05 173.08 825.44 84.26 807.73 173.08 799.83 173.08 820.43 70.08 826.31 70.08 876.92 158.9 894.63 70.08 902.53 70.08 881.93 173.08"/>
      </g>
      <g>
        <path class="st0" d="M936.72,72.58h35.14c29.26,0,44.94,15.82,44.94,39.2,0,34.02-23.66,58.8-61.04,58.8h-38.64l19.6-98ZM956.04,167.92c35.42,0,57.96-23.38,57.96-56.14,0-21.84-14-36.54-42.42-36.54h-32.62l-18.48,92.68h35.56,0Z"/>
        <path class="st2" d="M955.76,173.08h-41.69l20.6-103h37.19c29.26,0,47.44,15.98,47.44,41.7,0,17.36-6.12,32.96-17.25,43.94-11.51,11.36-27.52,17.36-46.29,17.36ZM923.53,165.42h32.51c33.17,0,55.46-21.56,55.46-53.64,0-21.63-14.55-34.04-39.92-34.04h-30.57l-17.48,87.68Z"/>
      </g>
      <g>
        <path class="st0" d="M1068.74,75.24h-36.4l.56-2.66h75.6l-.56,2.66h-36.4l-19.04,95.34h-2.8l19.04-95.34h0Z"/>
        <polygon class="st2" points="1054.55 173.08 1046.65 173.08 1065.69 77.74 1029.26 77.74 1030.87 70.08 1111.58 70.08 1109.97 77.74 1073.59 77.74 1054.55 173.08"/>
      </g>
      <g>
        <path class="st0" d="M1141.68,131.38c0-31.36,22.12-59.22,58.94-59.22,14.7,0,26.32,4.48,32.9,12.32l-1.96,1.82c-6.72-7.56-17.08-11.48-31.22-11.48-34.16,0-55.86,25.9-55.86,56.56,0,21.98,14.14,36.96,41.58,36.96,14.42,0,25.9-4.34,34.16-12.04l1.68,2.24c-8.12,7.56-21.42,12.46-36.12,12.46-28.56,0-44.1-15.96-44.1-39.62h0Z"/>
        <path class="st2" d="M1185.78,173.5c-28.74,0-46.6-16.14-46.6-42.12,0-16.46,5.8-31.76,16.33-43.07,11.36-12.2,26.95-18.65,45.11-18.65,15.3,0,27.66,4.69,34.81,13.21l1.53,1.82-5.57,5.18-1.7-1.91c-6.28-7.06-16.15-10.64-29.35-10.64-30.92,0-53.36,22.74-53.36,54.06,0,21.9,14.24,34.46,39.08,34.46,13.44,0,24.36-3.83,32.45-11.37l2.04-1.9,4.7,6.26-1.65,1.53c-8.83,8.22-22.97,13.13-37.82,13.13Z"/>
      </g>
      <g>
        <path class="st0" d="M1239.12,131.38c0-31.36,22.12-59.22,58.24-59.22,28.56,0,44.1,15.96,44.1,39.62,0,31.36-22.12,59.22-58.24,59.22-28.56,0-44.1-15.96-44.1-39.62ZM1338.66,111.78c0-21.98-14.14-36.96-41.58-36.96-33.46,0-55.16,25.9-55.16,56.56,0,21.98,14.14,36.96,41.58,36.96,33.46,0,55.16-25.9,55.16-56.56Z"/>
        <path class="st2" d="M1283.22,173.5c-28.74,0-46.6-16.14-46.6-42.12,0-16.42,5.77-31.72,16.24-43.07,11.26-12.2,26.65-18.65,44.5-18.65,28.74,0,46.6,16.14,46.6,42.12,0,16.42-5.77,31.72-16.24,43.07-11.26,12.2-26.65,18.65-44.5,18.65ZM1297.08,77.32c-15.31,0-28.55,5.53-38.3,15.99-9.26,9.94-14.36,23.46-14.36,38.07,0,21.9,14.24,34.46,39.08,34.46,15.31,0,28.55-5.53,38.3-15.99,9.26-9.94,14.36-23.46,14.36-38.07,0-21.9-14.24-34.46-39.08-34.46Z"/>
      </g>
      <g>
        <path class="st0" d="M1442.82,98.62c0,25.2-17.08,38.36-44.38,38.36h-31.36l-6.72,33.6h-2.8l19.6-98h32.9c20.72,0,32.76,9.38,32.76,26.04h0ZM1440.02,98.62c0-14.98-10.64-23.38-29.82-23.38h-30.8l-11.76,59.08h30.66c26.46,0,41.72-12.04,41.72-35.7Z"/>
        <path class="st2" d="M1362.41,173.08h-7.9l20.6-103h34.95c22.08,0,35.26,10.67,35.26,28.54,0,25.97-17.09,40.86-46.88,40.86h-29.31l-6.72,33.6ZM1370.69,131.82h27.61c17.89,0,39.22-5.76,39.22-33.2,0-9.53-4.74-20.88-27.32-20.88h-28.75l-10.77,54.08Z"/>
      </g>
      <g>
        <path class="st0" d="M1477.4,75.24l-8.82,44.24h54.04l-.56,2.66h-54.04l-9.1,45.78h62.44l-.56,2.66h-65.24l19.6-98h63.14l-.56,2.66h-60.34,0Z"/>
        <polygon class="st2" points="1522.83 173.08 1452.51 173.08 1473.11 70.08 1541.38 70.08 1539.77 77.74 1479.45 77.74 1471.63 116.98 1525.7 116.98 1524.09 124.64 1470.07 124.64 1461.97 165.42 1524.44 165.42 1522.83 173.08"/>
      </g>
      <g>
        <path class="st0" d="M1645.68,72.58l-19.6,98h-2.38l-53.2-93.38-18.62,93.38h-2.8l19.6-98h2.38l53.2,93.38,18.62-93.38s2.8,0,2.8,0Z"/>
        <polygon class="st2" points="1628.13 173.08 1622.25 173.08 1571.64 84.26 1553.93 173.08 1546.03 173.08 1566.63 70.08 1572.51 70.08 1623.12 158.9 1640.83 70.08 1648.73 70.08 1628.13 173.08"/>
      </g>
      <g>
        <path class="st0" d="M1759.92,72.58l-19.6,98h-2.8l9.66-48.44h-71.4l-9.66,48.44h-2.8l19.6-98h2.8l-9.38,46.9h71.4l9.38-46.9h2.8Z"/>
        <polygon class="st2" points="1742.37 173.08 1734.47 173.08 1744.13 124.64 1677.83 124.64 1668.17 173.08 1660.27 173.08 1680.87 70.08 1688.77 70.08 1679.39 116.98 1745.69 116.98 1755.07 70.08 1762.97 70.08 1742.37 173.08"/>
      </g>
      <g>
        <path class="st0" d="M1843.21,141.04h-60.06l-19.6,29.54h-3.36l65.1-98h2.8l25.9,98h-2.94l-7.84-29.54h0ZM1842.51,138.38l-16.24-62.16-41.3,62.16h57.54Z"/>
        <path class="st2" d="M1857.24,173.08h-8.11l-7.84-29.54h-56.79l-19.6,29.54h-9.36l68.42-103h6.07l27.22,103ZM1789.63,135.88h49.64l-14.01-53.63-35.63,53.63Z"/>
      </g>
      <g>
        <path class="st0" d="M1963.61,84.62l-1.96,1.82c-6.72-7.7-17.5-11.62-31.92-11.62-34.16,0-55.86,25.9-55.86,56.56,0,21.98,14.14,36.96,41.58,36.96,12.74,0,22.68-4.2,31.22-11.2l6.86-34.58h2.66l-7.14,35.84c-8.26,7.56-20.3,12.6-33.88,12.6-28.56,0-44.1-15.96-44.1-39.62,0-31.36,22.12-59.22,58.94-59.22,14.98,0,27.02,4.62,33.6,12.46h0Z"/>
        <path class="st2" d="M1915.17,173.5c-28.74,0-46.6-16.14-46.6-42.12,0-16.46,5.8-31.76,16.33-43.07,11.36-12.2,26.95-18.65,45.11-18.65,15.45,0,28.39,4.87,35.51,13.35l1.53,1.82-5.59,5.19-1.7-1.94c-6.23-7.14-16.34-10.76-30.04-10.76-30.92,0-53.36,22.74-53.36,54.06,0,21.9,14.24,34.46,39.08,34.46,11.07,0,20.29-3.21,28.94-10.08l7.08-35.7h7.76l-7.89,39.63-.6.55c-9.2,8.42-22.17,13.26-35.57,13.26Z"/>
      </g>
      <g>
        <path class="st0" d="M2002.67,75.24l-8.82,44.24h54.04l-.56,2.66h-54.04l-9.1,45.78h62.44l-.56,2.66h-65.24l19.6-98h63.14l-.56,2.66h-60.34,0Z"/>
        <polygon class="st2" points="2048.1 173.08 1977.78 173.08 1998.38 70.08 2066.65 70.08 2065.04 77.74 2004.72 77.74 1996.9 116.98 2050.97 116.98 2049.36 124.64 1995.34 124.64 1987.24 165.42 2049.71 165.42 2048.1 173.08"/>
      </g>
      <g>
        <path class="st0" d="M2170.95,72.58l-19.6,98h-2.38l-53.2-93.38-18.62,93.38h-2.8l19.6-98h2.38l53.2,93.38,18.62-93.38s2.8,0,2.8,0Z"/>
        <polygon class="st2" points="2153.4 173.08 2147.52 173.08 2096.91 84.26 2079.2 173.08 2071.3 173.08 2091.9 70.08 2097.78 70.08 2148.39 158.9 2166.1 70.08 2174 70.08 2153.4 173.08"/>
      </g>
    </g>
  </g>
</svg>