<?xml version="1.0" encoding="UTF-8"?>
<svg id="Layer_3" xmlns="http://www.w3.org/2000/svg" version="1.1" viewBox="0 0 1143.28 341.48">
  <!-- Generator: Adobe Illustrator 30.3.0, SVG Export Plug-In . SVG Version: 2.1.3 Build 182)  -->
  <defs>
    <style>
      .st0 {
        fill: #334c56;
      }
    </style>
  </defs>
  <path class="st0" d="M97.9,171.9c-.69,0-1.36-.04-2.07-.08l-.28-.02c-3.71-.21-9.63-3.92-10.54-11.21-1.25-10.07,1.81-19.7,9.61-40.9,4.74-12.87,8.97-21.79,10.28-24.46-3.8,1.73-7.17,2.93-9.97,3.76-8.49,2.52-15.27,4.8-20.9,7.01-.81,1.73-1.69,3.72-2.67,5.96-4.12,9.35-9.76,22.16-19.65,37.49-7.64,11.85-15.08,22.48-21.82,22.21-4.88-.19-7.9-3.88-8.06-9.88-.43-15.11,12.28-30.63,15.45-33.66,11.58-11.09,18.13-17.37,34.92-24.09.08-.17.16-.33.24-.5l1.41-2.89c8.32-17.04,16.92-34.65,22.77-52.9.17-.52.36-1.07.56-1.65,1.16-3.31,2.6-7.43,1.63-12.61l-.04-.26c-.56-3.7-2.69-6.01-6.33-6.85-3.7-.85-6.62-1.53-15.31,1.72-8.01,2.99-26.89,11.76-29.36,28.41-.42,2.84.45,6.36,1.94,7.84,1.83,1.83,3.97,2.77,6.31,2.71,3.32-.05,6.99-2.04,10.32-5.6,3.67-3.94,7.26-9.07,6.99-11.65-.41-3.84-4-3.9-5.53-3.75-3.37.33-6.95,2.7-6.68,5.55.04.46.2.56.27.6.37.24,1.13.17,1.61.07.55-.19,1.25-.38,1.77.29l.08,1.45c-.2.31-.62.52-1.11.65h-.02c-.91.23-2.07.21-2.64.07-1.41-.34-2.3-1.41-2.44-2.91-.42-4.52,4.31-7.81,8.93-8.27,4.59-.46,7.83,1.89,8.26,5.98.47,4.51-5.73,11.56-7.65,13.61-3.8,4.06-8.1,6.33-12.11,6.39-3,.06-5.83-1.14-8.12-3.44-2.04-2.04-3.18-6.33-2.64-9.97,2.66-17.97,22.54-27.24,30.96-30.39,8.77-3.28,12.18-2.87,16.75-1.82,3.26.75,7.33,2.91,8.24,8.92l.03.18c1.09,5.84-.54,10.5-1.73,13.9-.2.56-.38,1.09-.54,1.59-5.91,18.43-14.55,36.12-22.91,53.24l-.47.96c5.17-1.93,11.25-3.93,18.59-6.11,3.39-1.01,7.64-2.57,12.48-5,3.45-6.97,6.56-13.35,9.34-19.06,16.09-33.05,22.75-46.72,34.17-47.5,4.52-.3,8.08,1.5,10.02,5.08,2.91,5.35-1.83,14.08-4.92,18.81-16.18,24.75-33.49,37.74-46.74,44.52-.38.77-.77,1.55-1.16,2.34-.85,1.7-5.34,10.91-10.45,24.77-7.65,20.79-10.65,30.21-9.47,39.72.8,6.45,5.97,8.9,8.2,9.03l.29.02c5.85.35,9.72.59,43.8-32.98l.04-.03h0l.84-.77,1.68,1.85-.84.76c-31.19,30.73-37.72,33.74-43.59,33.74h-.02ZM70.65,107.38c-14.6,6.21-20.92,12.27-31.65,22.54-3.01,2.88-15.08,17.59-14.68,31.78.07,2.71.91,7.27,5.66,7.46,5.47.2,12.98-10.77,19.62-21.07,9.78-15.17,15.38-27.87,19.46-37.15.56-1.27,1.08-2.46,1.58-3.57h.01ZM151.16,27.5c-.27,0-.53,0-.79.03-9.97.68-16.45,13.98-32.09,46.1-2.36,4.85-4.96,10.18-7.81,15.96,12.48-7.01,28.05-19.57,42.74-42.03,1.75-2.68,7.26-11.76,4.82-16.25-1.67-3.07-4.52-3.81-6.87-3.81h0Z"/>
  <g>
    <g>
      <path class="st0" d="M190.81,72.58h2.8l-19.6,98h-2.8l19.6-98Z"/>
      <path class="st0" d="M174.05,170.63h-2.9v-.06s19.62-98.04,19.62-98.04h2.9v.06s-19.62,98.04-19.62,98.04ZM171.27,170.53h2.7l19.58-97.9h-2.7l-19.58,97.9Z"/>
    </g>
    <g>
      <path class="st0" d="M174.11,170.71h-3.05l.03-.15,19.62-98.1h3.05l-.03.15-19.62,98.1h0ZM171.36,170.46h2.54l19.55-97.75h-2.54l-19.55,97.75Z"/>
      <path class="st0" d="M174.15,170.76h-3.15l.04-.21,19.63-98.14h3.15l-.04.21-19.63,98.14ZM171.12,170.66h2.95l19.63-98.15h-2.95l-19.63,98.15ZM173.94,170.51h-2.64v-.06s19.57-97.79,19.57-97.79h2.64v.06s-19.57,97.79-19.57,97.79ZM171.42,170.41h2.44l19.53-97.65h-2.44l-19.53,97.65Z"/>
    </g>
  </g>
  <g>
    <g>
      <path class="st0" d="M230.85,72.58h2.8l-19.04,95.34h58.38l-.56,2.66h-61.18l19.6-98h0Z"/>
      <path class="st0" d="M272.47,170.63h-61.28v-.06s19.62-98.04,19.62-98.04h2.9v.06s-19.04,95.28-19.04,95.28h58.38l-.58,2.76ZM211.31,170.53h61.08l.54-2.56h-58.38v-.06s19.04-95.28,19.04-95.28h-2.7l-19.58,97.9Z"/>
    </g>
    <g>
      <path class="st0" d="M272.53,170.71h-61.43l.03-.15,19.62-98.1h3.05l-.03.15-19.01,95.19h58.38l-.61,2.91h0ZM211.4,170.46h60.93l.51-2.41h-58.38l.03-.15,19.01-95.19h-2.54l-19.55,97.75h0Z"/>
      <path class="st0" d="M272.57,170.76h-61.53l.04-.21,19.63-98.14h3.15l-.04.21-19,95.13h58.38l-.63,3.01ZM211.16,170.66h61.33l.59-2.81h-58.38v-.06s19.04-95.28,19.04-95.28h-2.95l-19.63,98.15ZM272.37,170.51h-60.97v-.05h-.04s19.56-97.8,19.56-97.8h2.64v.06s-19.04,95.28-19.04,95.28h58.38l-.53,2.51ZM211.47,170.41h60.82l.49-2.31h-58.38l.04-.21,19-95.13h-2.44l-19.53,97.65Z"/>
    </g>
  </g>
  <g>
    <g>
      <path class="st0" d="M312.05,72.58h35.14c29.26,0,44.94,15.82,44.94,39.2,0,34.02-23.66,58.8-61.04,58.8h-38.64l19.6-98h0ZM331.37,167.92c35.42,0,57.96-23.38,57.96-56.14,0-21.84-14-36.54-42.42-36.54h-32.62l-18.48,92.68h35.56Z"/>
      <path class="st0" d="M331.09,170.63h-38.7v-.06s19.62-98.04,19.62-98.04h35.18c7.17,0,13.69.96,19.38,2.84,5.51,1.82,10.25,4.52,14.09,8.01,7.53,6.84,11.51,16.66,11.51,28.4,0,8.42-1.44,16.35-4.28,23.56-2.81,7.13-6.93,13.4-12.23,18.64-5.37,5.3-11.85,9.43-19.25,12.25-7.66,2.92-16.18,4.41-25.33,4.41ZM292.51,170.53h38.58c9.14,0,17.64-1.48,25.29-4.4,7.38-2.82,13.85-6.93,19.21-12.23,5.3-5.23,9.4-11.48,12.21-18.6,2.84-7.2,4.28-15.11,4.28-23.52,0-11.72-3.97-21.51-11.48-28.33-3.83-3.48-8.56-6.17-14.06-7.98-5.68-1.88-12.19-2.83-19.35-2.83h-35.1l-19.58,97.9ZM331.37,167.97h-35.62v-.06s18.5-92.72,18.5-92.72h32.66c6.95,0,13.22.89,18.63,2.64,5.22,1.69,9.68,4.2,13.27,7.45,3.49,3.17,6.16,7.06,7.93,11.56,1.75,4.43,2.63,9.46,2.63,14.94,0,8.1-1.37,15.71-4.08,22.61-2.67,6.81-6.59,12.79-11.63,17.78-5.1,5.04-11.25,8.95-18.28,11.63-7.26,2.77-15.34,4.17-24.02,4.17ZM295.87,167.87h35.5c8.67,0,16.74-1.4,23.98-4.16,7.02-2.67,13.15-6.58,18.25-11.61,5.04-4.98,8.94-10.95,11.61-17.75,2.7-6.89,4.07-14.48,4.07-22.57,0-5.47-.88-10.49-2.63-14.9-1.77-4.49-4.43-8.36-7.91-11.52-3.57-3.24-8.02-5.74-13.23-7.43-5.4-1.75-11.66-2.64-18.6-2.64h-32.58l-18.46,92.58Z"/>
    </g>
    <g>
      <path class="st0" d="M331.09,170.71h-38.79l.03-.15,19.62-98.1h35.24c14.1,0,25.7,3.76,33.53,10.86,7.55,6.85,11.54,16.69,11.54,28.46,0,8.43-1.44,16.37-4.29,23.59-2.81,7.14-6.94,13.42-12.25,18.66-11.06,10.91-26.49,16.68-44.63,16.68h0ZM292.6,170.46h38.49c18.07,0,33.44-5.74,44.45-16.61,5.29-5.22,9.39-11.47,12.19-18.58,2.83-7.19,4.27-15.09,4.27-23.49,0-11.69-3.96-21.47-11.46-28.27-7.78-7.07-19.32-10.8-33.36-10.8h-35.04l-19.55,97.75h.01ZM331.37,168.04h-35.71l18.53-92.93h32.72c13.81,0,24.56,3.4,31.95,10.11,6.93,6.29,10.59,15.48,10.59,26.55,0,16.29-5.44,30.28-15.73,40.44-10.48,10.35-25.12,15.82-42.35,15.82h0ZM295.96,167.79h35.41c34.59,0,57.83-22.51,57.83-56.02,0-23.14-15.42-36.41-42.29-36.41h-32.52l-18.43,92.43h0Z"/>
      <path class="st0" d="M331.09,170.76h-38.85l.04-.21,19.63-98.14h35.28c14.11,0,25.72,3.76,33.56,10.87,7.56,6.86,11.56,16.71,11.56,28.5,0,8.45-1.44,16.39-4.29,23.61-2.81,7.14-6.93,13.42-12.26,18.68-11.07,10.92-26.52,16.69-44.67,16.69ZM292.36,170.66h38.73c18.12,0,33.54-5.76,44.59-16.67,5.32-5.25,9.44-11.52,12.24-18.64,2.84-7.21,4.29-15.14,4.29-23.57,0-11.75-3.98-21.58-11.52-28.42-7.83-7.1-19.41-10.85-33.5-10.85h-35.2l-19.63,98.15ZM331.09,170.51h-38.56v-.06s19.57-97.79,19.57-97.79h35.08c14.06,0,25.61,3.74,33.39,10.81,7.51,6.81,11.48,16.6,11.48,28.31,0,8.4-1.44,16.3-4.27,23.51-2.8,7.12-6.91,13.37-12.2,18.6-11.02,10.88-26.4,16.62-44.49,16.62ZM292.65,170.41h38.44c18.06,0,33.42-5.74,44.42-16.6,5.28-5.21,9.38-11.46,12.18-18.56,2.83-7.19,4.27-15.09,4.27-23.47,0-11.68-3.96-21.44-11.44-28.23-7.77-7.06-19.29-10.79-33.33-10.79h-35l-19.53,97.65ZM331.37,168.09h-35.77v-.06s18.55-92.97,18.55-92.97h32.76c13.83,0,24.59,3.41,31.98,10.12,6.94,6.3,10.61,15.49,10.61,26.59,0,16.31-5.44,30.3-15.74,40.48-10.48,10.35-25.12,15.82-42.34,15.83h-.05ZM295.72,167.99h35.6s.05-.01.05-.01c17.21,0,31.85-5.47,42.31-15.81,10.28-10.15,15.72-24.12,15.72-40.4,0-11.07-3.66-20.23-10.57-26.51-7.38-6.7-18.12-10.1-31.92-10.1h-32.68l-18.51,92.83ZM331.37,167.84h-35.47v-.06s18.45-92.47,18.45-92.47h32.56c26.91,0,42.34,13.29,42.34,36.46,0,33.54-23.26,56.07-57.88,56.07ZM296.02,167.74h35.35c34.56,0,57.78-22.49,57.78-55.97,0-23.11-15.4-36.36-42.24-36.36h-32.48l-18.41,92.33Z"/>
    </g>
  </g>
  <g>
    <g>
      <path class="st0" d="M429.93,75.24l-8.82,44.24h54.04l-.56,2.66h-54.04l-9.1,45.78h62.44l-.56,2.66h-65.24l19.6-98h63.14l-.56,2.66h-60.34Z"/>
      <path class="st0" d="M473.37,170.63h-65.34v-.06s19.62-98.04,19.62-98.04h63.24l-.58,2.76h-60.34l-8.8,44.14h54.04l-.58,2.76h-54.04l-9.08,45.68h62.44l-.58,2.76ZM408.15,170.53h65.14l.54-2.56h-62.44v-.06s9.12-45.82,9.12-45.82h54.04l.54-2.56h-54.04v-.06s8.84-44.28,8.84-44.28h60.34l.54-2.56h-63.04l-19.58,97.9Z"/>
    </g>
    <g>
      <path class="st0" d="M473.43,170.71h-65.49l.03-.15,19.62-98.1h63.4l-.61,2.91h-60.34l-8.77,43.99h54.04l-.61,2.91h-54.04l-9.05,45.53h62.44l-.61,2.91h-.01ZM408.24,170.46h64.99l.51-2.41h-62.44l.03-.15,9.12-45.88h54.04l.51-2.41h-54.04l8.87-44.49h60.34l.51-2.41h-62.88l-19.55,97.75h-.01Z"/>
      <path class="st0" d="M473.48,170.76h-65.6l.04-.21,19.63-98.14h63.5l-.63,3.01h-60.34l-8.75,43.89h54.04l-.63,3.01h-54.04l-9.03,45.43h62.44l-.63,3.01ZM408,170.66h65.4l.59-2.81h-62.44v-.06s9.07-45.57,9.07-45.57h54.04l.59-2.81h-54.04v-.06s8.79-44.03,8.79-44.03h60.34l.59-2.81h-63.3l-19.63,98.15ZM473.27,170.51h-65.03v-.05h-.04s19.56-97.8,19.56-97.8h62.98l-.53,2.51h-60.34l-8.85,44.39h54.04l-.53,2.51h-54.04l-9.13,45.93h62.44l-.53,2.51ZM408.31,170.41h64.88l.49-2.31h-62.44l.04-.21,9.13-45.92h54.04l.49-2.31h-54.04v-.06s8.89-44.53,8.89-44.53h60.34l.49-2.31h-62.78l-19.53,97.65Z"/>
    </g>
  </g>
  <g>
    <g>
      <path class="st0" d="M584.34,140.62c0,19.18-14.7,29.96-40.6,29.96h-42.14l19.6-98h38.78c17.5,0,28.42,6.72,28.42,19.74,0,15.68-10.36,25.06-24.5,28.14,12.88,1.68,20.44,8.4,20.44,20.16h0ZM581.54,140.9c0-13.44-9.38-18.76-27.58-18.76h-39.9l-9.1,45.78h39.34c23.94,0,37.24-9.66,37.24-27.02h0ZM514.63,119.48h36.54c19.88,0,34.44-9.1,34.44-26.74,0-11.62-9.38-17.5-25.62-17.5h-36.54s-8.82,44.24-8.82,44.24Z"/>
      <path class="st0" d="M543.74,170.63h-42.2v-.06s19.62-98.04,19.62-98.04h38.82c8.87,0,15.87,1.68,20.8,5,5.09,3.42,7.67,8.4,7.67,14.79,0,7.52-2.34,13.86-6.96,18.83-4.16,4.48-10.14,7.69-17.3,9.3,6.39.88,11.37,2.99,14.8,6.28,3.59,3.44,5.41,8.12,5.41,13.9,0,4.75-.91,9.06-2.71,12.79-1.78,3.7-4.44,6.87-7.9,9.42-3.46,2.55-7.75,4.51-12.76,5.81-5.05,1.32-10.86,1.99-17.28,1.99ZM501.66,170.53h42.08c6.41,0,12.22-.67,17.26-1.98,4.99-1.3,9.27-3.25,12.72-5.79,3.45-2.54,6.1-5.7,7.87-9.38,1.79-3.72,2.7-8.01,2.7-12.75,0-5.75-1.81-10.4-5.38-13.82-3.46-3.32-8.51-5.44-15.02-6.29l-.29-.04.28-.06c7.27-1.58,13.33-4.81,17.53-9.33,4.6-4.95,6.93-11.26,6.93-18.76,0-6.36-2.57-11.31-7.63-14.71-4.91-3.3-11.89-4.98-20.74-4.98h-38.74l-19.58,97.9ZM544.3,167.97h-39.4v-.06s9.12-45.82,9.12-45.82h39.94c9.4,0,16.15,1.42,20.64,4.35,4.7,3.06,6.99,7.79,6.99,14.46,0,8.66-3.25,15.41-9.66,20.06-6.41,4.65-15.7,7.01-27.63,7.01ZM505.02,167.87h39.28c11.9,0,21.18-2.35,27.57-6.99,6.38-4.63,9.62-11.36,9.62-19.98,0-6.63-2.27-11.33-6.94-14.38-4.47-2.92-11.21-4.33-20.59-4.33h-39.86l-9.08,45.68ZM551.17,119.53h-36.6v-.06s8.84-44.28,8.84-44.28h36.58c8.19,0,14.56,1.48,18.93,4.4,4.47,2.99,6.74,7.41,6.74,13.15,0,4.3-.87,8.22-2.59,11.64-1.65,3.27-4.07,6.1-7.19,8.38-6.05,4.43-14.59,6.76-24.71,6.76ZM514.69,119.43h36.48c10.09,0,18.61-2.33,24.65-6.75,3.12-2.28,5.53-5.09,7.16-8.35,1.71-3.41,2.58-7.31,2.58-11.6,0-5.7-2.25-10.1-6.7-13.07-4.35-2.91-10.7-4.38-18.87-4.38h-36.5l-8.8,44.14Z"/>
    </g>
    <g>
      <path class="st0" d="M543.74,170.71h-42.29l.03-.15,19.62-98.1h38.88c18.14,0,28.55,7.24,28.55,19.86,0,14.35-8.71,24.56-23.93,28.11,13,1.9,19.87,8.87,19.87,20.19,0,9.58-3.58,17.07-10.64,22.27-7.04,5.18-17.16,7.81-30.09,7.81h0ZM501.75,170.46h41.99c12.87,0,22.95-2.61,29.94-7.76s10.54-12.58,10.54-22.07c0-11.37-7.03-18.3-20.33-20.04l-.71-.09.7-.15c15.51-3.38,24.4-13.59,24.4-28.02,0-6.33-2.55-11.26-7.59-14.65-4.9-3.3-11.87-4.97-20.7-4.97h-38.68l-19.55,97.75h0ZM544.3,168.04h-39.49l.03-.15,9.12-45.88h40c9.41,0,16.18,1.43,20.68,4.36,4.72,3.08,7.02,7.83,7.02,14.52,0,8.68-3.26,15.45-9.69,20.12-6.42,4.66-15.73,7.02-27.67,7.02h0ZM505.11,167.79h39.19c11.89,0,21.15-2.35,27.52-6.98,6.36-4.62,9.59-11.32,9.59-19.92,0-12.89-8.47-18.63-27.46-18.63h-39.8l-9.05,45.53h0ZM551.17,119.6h-36.69l8.87-44.49h36.64c8.2,0,14.58,1.48,18.97,4.41,4.5,3,6.78,7.45,6.78,13.21,0,8.44-3.39,15.39-9.82,20.09-6.06,4.44-14.62,6.78-24.75,6.78ZM514.78,119.35h36.39c10.07,0,18.58-2.33,24.6-6.73,6.35-4.65,9.71-11.52,9.71-19.88,0-5.67-2.24-10.05-6.66-13-4.34-2.9-10.68-4.37-18.83-4.37h-36.44l-8.77,43.99h0Z"/>
      <path class="st0" d="M543.74,170.76h-42.35l.04-.21,19.63-98.14h38.92c18.18,0,28.6,7.26,28.6,19.91,0,14.26-8.64,24.49-23.72,28.1,12.86,1.96,19.65,8.94,19.65,20.2,0,9.59-3.59,17.1-10.66,22.31-7.04,5.18-17.16,7.81-30.07,7.82h-.05ZM501.51,170.66h42.18,0s.05,0,.05,0c12.91,0,23.03-2.62,30.06-7.8,7.05-5.19,10.62-12.67,10.62-22.23,0-11.28-6.86-18.24-19.83-20.14l-.26-.04.26-.06c15.18-3.54,23.89-13.77,23.89-28.06,0-12.59-10.39-19.81-28.5-19.81h-38.84l-19.63,98.15ZM543.74,170.51h-41.99v-.05h-.04s19.56-97.8,19.56-97.8h38.72c8.85,0,15.82,1.67,20.73,4.98,5.05,3.4,7.61,8.34,7.61,14.69,0,14.45-8.91,24.68-24.44,28.07l-.41.09.42.05c13.33,1.74,20.37,8.69,20.37,20.09,0,9.51-3.55,16.95-10.56,22.11-7,5.16-17.08,7.77-29.97,7.77ZM501.82,170.41h41.92c12.87,0,22.93-2.61,29.91-7.75,6.98-5.14,10.52-12.56,10.52-22.03,0-11.34-7.01-18.25-20.29-19.99l-1-.13.99-.21c15.48-3.37,24.36-13.57,24.36-27.97,0-6.32-2.55-11.23-7.57-14.61-4.89-3.29-11.84-4.96-20.67-4.96h-38.64l-19.53,97.65ZM544.3,168.09h-39.55l.04-.21,9.13-45.92h40.04c9.42,0,16.19,1.43,20.71,4.37,4.74,3.09,7.04,7.86,7.04,14.56,0,8.7-3.27,15.48-9.71,20.16-6.42,4.66-15.72,7.02-27.65,7.03h-.05ZM504.87,167.99h39.38s.05-.01.05-.01c11.93,0,21.23-2.36,27.64-7.01,6.42-4.66,9.67-11.42,9.67-20.08,0-6.67-2.29-11.41-7-14.48-4.5-2.93-11.25-4.35-20.65-4.35h-39.96l-9.13,45.93ZM544.3,167.84h-39.26v-.06s9.07-45.57,9.07-45.57h39.84c19.03,0,27.51,5.76,27.51,18.68,0,8.61-3.23,15.33-9.61,19.96-6.38,4.64-15.65,6.99-27.55,6.99ZM505.16,167.74h39.14c11.88,0,21.13-2.35,27.49-6.97,6.35-4.61,9.57-11.3,9.57-19.88,0-12.85-8.45-18.58-27.41-18.58h-39.76l-9.03,45.43ZM551.17,119.65h-36.75v-.06s8.89-44.53,8.89-44.53h36.68c8.21,0,14.61,1.49,19,4.42,4.51,3.01,6.8,7.47,6.8,13.25,0,8.46-3.4,15.42-9.84,20.13-6.06,4.44-14.63,6.79-24.78,6.79ZM514.54,119.55h36.63c10.13,0,18.67-2.34,24.72-6.77,6.41-4.69,9.8-11.62,9.8-20.05,0-5.75-2.27-10.18-6.76-13.17-4.38-2.92-10.75-4.4-18.94-4.4h-36.6l-8.85,44.39ZM551.17,119.4h-36.39v-.04h-.05v-.05h0s8.77-43.99,8.77-43.99h36.48c8.17,0,14.51,1.47,18.86,4.38,4.43,2.96,6.68,7.35,6.68,13.04,0,8.37-3.37,15.26-9.73,19.92-6.03,4.41-14.55,6.74-24.63,6.74ZM514.84,119.3h36.33c10.06,0,18.56-2.32,24.57-6.72,6.34-4.64,9.69-11.5,9.69-19.84,0-5.66-2.23-10.02-6.64-12.96-4.33-2.89-10.66-4.36-18.8-4.36h-36.4l-8.75,43.88Z"/>
    </g>
  </g>
  <g>
    <g>
      <path class="st0" d="M659.8,135.86l19.6,34.72h-3.22l-19.32-34.16c-3.08.42-6.3.56-9.66.56h-31.36l-6.72,33.6h-2.8l19.6-98h32.9c20.72,0,32.76,9.38,32.76,26.04,0,21.14-11.9,33.74-31.78,37.24h0ZM688.78,98.62c0-14.98-10.64-23.38-29.82-23.38h-30.8l-11.76,59.08h30.66c26.46,0,41.72-12.04,41.72-35.7Z"/>
      <path class="st0" d="M679.49,170.63h-3.34v-.03s-19.32-34.13-19.32-34.13c-2.8.38-5.86.56-9.63.56h-31.32l-6.72,33.6h-2.9v-.06s19.62-98.04,19.62-98.04h32.94c20.85,0,32.81,9.51,32.81,26.09,0,10.37-2.84,18.87-8.45,25.27-5.42,6.19-13.26,10.23-23.3,12.01l19.61,34.73ZM676.21,170.53h3.11l-19.59-34.71h.07c10.05-1.78,17.89-5.81,23.32-12,5.59-6.38,8.42-14.86,8.42-25.2,0-16.52-11.92-25.99-32.71-25.99h-32.86l-19.58,97.9h2.7l6.72-33.6h31.4c3.79,0,6.85-.18,9.65-.56h.03s.02.02.02.02l19.3,34.13ZM647.06,134.37h-30.72v-.06s11.78-59.12,11.78-59.12h30.84c9.55,0,16.99,2.05,22.13,6.08,5.13,4.03,7.74,9.87,7.74,17.35,0,11.67-3.69,20.67-10.96,26.76-7.12,5.96-17.49,8.99-30.82,8.99ZM616.46,134.27h30.6c13.3,0,23.65-3.02,30.75-8.97,7.25-6.07,10.92-15.05,10.92-26.68,0-7.45-2.59-13.26-7.7-17.27-5.12-4.02-12.55-6.06-22.07-6.06h-30.76l-11.74,58.98Z"/>
    </g>
    <g>
      <path class="st0" d="M679.61,170.71h-3.51l-.04-.06-19.28-34.09c-2.79.38-5.84.55-9.59.55h-31.26l-6.72,33.6h-3.05l.03-.15,19.62-98.1h33c20.9,0,32.88,9.54,32.88,26.17,0,20.42-11.26,33.67-31.71,37.33l19.62,34.75h.01ZM676.25,170.46h2.93l-19.58-34.69.17-.03c10.03-1.77,17.86-5.79,23.27-11.96,5.58-6.36,8.4-14.83,8.4-25.15,0-16.47-11.89-25.92-32.63-25.92h-32.8l-19.55,97.75h2.54l6.72-33.6h31.46c3.78,0,6.85-.18,9.64-.56h.08l.04.06,19.28,34.1h.03ZM647.06,134.44h-30.81l.03-.15,11.78-59.18h30.9c9.56,0,17.03,2.05,22.18,6.1,5.15,4.05,7.77,9.9,7.77,17.41,0,11.69-3.7,20.71-10.98,26.82-7.13,5.98-17.52,9.01-30.86,9.01h-.01ZM616.55,134.19h30.51c13.29,0,23.62-3.01,30.7-8.95,7.23-6.06,10.89-15.01,10.89-26.63,0-7.42-2.58-13.21-7.67-17.21-5.11-4.01-12.52-6.05-22.03-6.05h-30.7l-11.71,58.83h.01Z"/>
      <path class="st0" d="M679.61,170.76h-3.54l-.06-.08-19.26-34.06c-2.75.37-5.79.55-9.56.55h-31.22l-6.72,33.6h-3.15l.04-.21,19.63-98.14h33.04c20.93,0,32.93,9.56,32.93,26.22,0,20.42-11.25,33.68-31.68,37.37l19.58,34.69-.03.02v.06ZM676.13,170.66h3.39l-19.61-34.74h.07c20.42-3.67,31.67-16.91,31.67-37.29,0-16.6-11.97-26.12-32.83-26.12h-32.96l-19.63,98.15h2.95l6.72-33.6h31.3c3.79,0,6.83-.17,9.58-.55h.03s.02.02.02.02l19.3,34.12ZM679.27,170.51h-3.08v-.03s-19.32-34.13-19.32-34.13h-.05c-2.8.38-5.86.56-9.64.56h-31.42l-6.72,33.6h-2.64v-.06s19.57-97.79,19.57-97.79h32.84c20.77,0,32.68,9.47,32.68,25.97,0,10.35-2.83,18.82-8.41,25.18-5.41,6.17-13.25,10.2-23.3,11.98l-.1.02,19.59,34.7ZM676.25,170.41h2.84l-19.57-34.68.24-.04c10.02-1.77,17.84-5.79,23.24-11.94,5.57-6.34,8.39-14.79,8.39-25.12,0-16.44-11.88-25.87-32.58-25.87h-32.76l-19.53,97.65h2.44l6.72-33.6h31.5c3.77,0,6.83-.18,9.63-.56h.11s.06.08.06.08l19.27,34.08ZM647.07,134.5h-.03s-30.85-.01-30.85-.01l.04-.21,11.79-59.22h30.94c9.58,0,17.05,2.06,22.21,6.11,5.17,4.06,7.79,9.94,7.79,17.45,0,11.7-3.7,20.73-11,26.86-7.14,5.99-17.53,9.02-30.89,9.02ZM616.31,134.39h30.78c13.33,0,23.69-3.02,30.81-8.99,7.27-6.1,10.96-15.12,10.96-26.78,0-7.48-2.61-13.33-7.75-17.37-5.14-4.04-12.59-6.09-22.15-6.09h-30.86l-11.79,59.23ZM647.06,134.24h-30.53l-.04-.04v-.03s11.72-58.87,11.72-58.87h30.74c9.51,0,16.94,2.04,22.06,6.06,5.1,4.01,7.69,9.81,7.69,17.25,0,11.63-3.67,20.6-10.91,26.67-7.09,5.95-17.43,8.96-30.73,8.96ZM616.6,134.14h30.46c13.28,0,23.6-3.01,30.67-8.94,7.21-6.05,10.87-14.99,10.87-26.59,0-7.4-2.57-13.18-7.65-17.17-5.11-4.01-12.51-6.04-22-6.04h-30.66l-11.69,58.74Z"/>
    </g>
  </g>
  <g>
    <g>
      <path class="st0" d="M772.22,141.04h-60.06l-19.6,29.54h-3.36l65.1-98h2.8l25.9,98h-2.94l-7.84-29.54h0ZM771.52,138.38l-16.24-62.16-41.3,62.16h57.54Z"/>
      <path class="st0" d="M783.06,170.63h-3.04v-.04s-7.84-29.5-7.84-29.5h-60l-19.6,29.54h-3.48l.05-.08,65.12-98.02h2.86v.04s25.93,98.06,25.93,98.06ZM780.1,170.53h2.84l-25.87-97.9h-2.74l-65.03,97.9h3.24l19.6-29.54h60.12v.04s7.84,29.5,7.84,29.5ZM771.58,138.43h-57.7l.05-.08,41.36-62.25.03.11,16.25,62.22ZM714.07,138.33h57.38l-16.2-61.99-41.19,61.99Z"/>
    </g>
    <g>
      <path class="st0" d="M783.16,170.71h-3.2l-.03-.09-7.81-29.45h-59.9l-19.6,29.54h-3.66l.13-.19,65.14-98.06h2.96l.02.09,25.94,98.16h0ZM780.16,170.46h2.68l-25.83-97.75h-2.64l-64.93,97.75h3.06l19.6-29.54h60.22l.03.09,7.81,29.45ZM771.68,138.5h-57.93l.13-.19,41.46-62.39.07.27,16.28,62.32h-.01ZM714.21,138.25h57.14l-16.13-61.73-41.02,61.73h.01Z"/>
      <path class="st0" d="M783.16,170.76h-3.24l-.04-.12-7.8-29.42h-59.84l-19.6,29.54h-3.78l.18-.27,65.16-98.08h3.03l.03.13,25.94,98.16h-.04v.06ZM780,170.66h3.09l-25.94-98.15h-2.89l-65.2,98.15h3.54l19.6-29.54h59.96v.04s7.84,29.5,7.84,29.5ZM782.9,170.51h-2.78v-.04s-7.84-29.5-7.84-29.5h-60.16l-19.6,29.54h-3.18l.05-.08,64.95-97.77h2.7v.04s25.86,97.81,25.86,97.81ZM780.2,170.41h2.58l-25.8-97.65h-2.58l-64.86,97.65h2.94l19.6-29.54h60.28l.04.12,7.8,29.42ZM771.78,138.66l-.12-.11h-58l.18-.27,41.52-62.48.1.38,16.32,62.48ZM713.84,138.45h57.78l-16.3-62.41-41.47,62.41ZM771.41,138.3h-57.31l.05-.08,41.08-61.82.03.11,16.15,61.79ZM714.29,138.2h56.99l-16.09-61.56-40.91,61.56Z"/>
    </g>
  </g>
  <g>
    <g>
      <path class="st0" d="M899.48,72.58l-19.6,98h-2.38l-53.2-93.38-18.62,93.38h-2.8l19.6-98h2.38l53.2,93.38,18.62-93.38s2.8,0,2.8,0Z"/>
      <path class="st0" d="M879.92,170.63h-2.45v-.02s-53.15-93.26-53.15-93.26l-18.6,93.29h-2.9v-.06s19.62-98.04,19.62-98.04h2.45v.02s53.15,93.26,53.15,93.26l18.6-93.29h2.9v.06s-19.62,98.04-19.62,98.04ZM877.53,170.53h2.31l19.58-97.9h-2.7l-18.64,93.47-.07-.12-53.19-93.35h-2.31l-19.58,97.9h2.7l18.64-93.47.07.12,53.19,93.35Z"/>
    </g>
    <g>
      <path class="st0" d="M879.98,170.71h-2.55l-.04-.06-53.04-93.09-18.57,93.15h-3.05l.03-.15,19.62-98.1h2.55l.04.06,53.03,93.09,18.57-93.15h3.06l-.03.15-19.62,98.1h0ZM877.57,170.46h2.21l19.55-97.75h-2.55l-18.67,93.61-.17-.29-53.16-93.32h-2.21l-19.55,97.75h2.54l18.67-93.61.17.29,53.16,93.32h.01Z"/>
      <path class="st0" d="M880.02,170.76h-2.62l-.06-.08-52.98-92.98-18.55,93.06h-3.15l.04-.21,19.63-98.14h2.62l.06.08,52.97,92.98,18.55-93.06h3.16l-.04.21-19.63,98.14ZM877.46,170.66h2.48l19.63-98.15h-2.96l-18.59,93.24-.07-.12-53.05-93.12h-2.48l-19.63,98.15h2.95l18.59-93.24.07.12,53.06,93.12ZM879.82,170.51h-2.29v-.02s-53.28-93.5-53.28-93.5l-18.65,93.52h-2.64v-.06s19.57-97.79,19.57-97.79h2.28v.02s53.28,93.5,53.28,93.5l18.65-93.52h2.65v.06s-19.57,97.79-19.57,97.79ZM877.59,170.41h2.15l19.53-97.65h-2.45l-18.69,93.7-.24-.4-53.15-93.3h-2.14l-19.53,97.65h2.44l18.69-93.7.24.4,53.15,93.3Z"/>
    </g>
  </g>
  <g>
    <g>
      <path class="st0" d="M936.72,72.58h35.14c29.26,0,44.94,15.82,44.94,39.2,0,34.02-23.66,58.8-61.04,58.8h-38.64l19.6-98ZM956.04,167.92c35.42,0,57.96-23.38,57.96-56.14,0-21.84-14-36.54-42.42-36.54h-32.62l-18.48,92.68h35.56,0Z"/>
      <path class="st0" d="M955.76,170.63h-38.7v-.06s19.62-98.04,19.62-98.04h35.18c7.17,0,13.69.96,19.38,2.84,5.51,1.82,10.25,4.52,14.09,8.01,7.53,6.84,11.51,16.66,11.51,28.4,0,8.42-1.44,16.35-4.28,23.56-2.81,7.13-6.93,13.4-12.23,18.64-5.37,5.3-11.85,9.43-19.25,12.25-7.66,2.92-16.18,4.41-25.33,4.41ZM917.18,170.53h38.58c9.14,0,17.64-1.48,25.29-4.4,7.38-2.82,13.85-6.93,19.21-12.23,5.3-5.23,9.41-11.48,12.21-18.6,2.84-7.2,4.28-15.11,4.28-23.52,0-11.72-3.97-21.51-11.48-28.33-3.83-3.48-8.56-6.17-14.06-7.98-5.68-1.88-12.19-2.83-19.35-2.83h-35.1l-19.58,97.9ZM956.04,167.97h-35.62v-.06s18.5-92.72,18.5-92.72h32.66c6.95,0,13.22.89,18.63,2.64,5.22,1.69,9.68,4.2,13.27,7.45,3.49,3.17,6.16,7.06,7.93,11.56,1.75,4.43,2.63,9.46,2.63,14.94,0,8.1-1.37,15.71-4.08,22.61-2.67,6.81-6.59,12.79-11.63,17.78-5.1,5.04-11.25,8.95-18.28,11.63-7.26,2.77-15.34,4.17-24.02,4.17ZM920.54,167.87h35.5c8.67,0,16.74-1.4,23.98-4.16,7.02-2.67,13.16-6.58,18.25-11.61,5.04-4.98,8.94-10.95,11.61-17.75,2.7-6.89,4.07-14.48,4.07-22.57,0-5.47-.88-10.49-2.63-14.9-1.77-4.49-4.43-8.36-7.91-11.52-3.57-3.24-8.02-5.74-13.23-7.43-5.4-1.75-11.66-2.64-18.6-2.64h-32.58l-18.46,92.58Z"/>
    </g>
    <g>
      <path class="st0" d="M955.76,170.71h-38.79l.03-.15,19.62-98.1h35.24c14.1,0,25.7,3.76,33.53,10.86,7.55,6.85,11.54,16.69,11.54,28.46,0,8.43-1.44,16.37-4.29,23.59-2.81,7.14-6.94,13.42-12.25,18.66-11.06,10.91-26.49,16.68-44.62,16.68h-.01ZM917.27,170.46h38.49c18.07,0,33.44-5.74,44.45-16.61,5.29-5.22,9.39-11.47,12.19-18.58,2.83-7.19,4.27-15.09,4.27-23.49,0-11.69-3.96-21.47-11.46-28.27-7.79-7.07-19.32-10.8-33.36-10.8h-35.04l-19.55,97.75h0ZM956.04,168.04h-35.71l.03-.15,18.5-92.78h32.72c13.81,0,24.56,3.4,31.95,10.11,6.93,6.29,10.59,15.48,10.59,26.55,0,16.29-5.44,30.28-15.73,40.44-10.48,10.35-25.12,15.82-42.35,15.82h0ZM920.63,167.79h35.41c34.59,0,57.83-22.51,57.83-56.02,0-23.14-15.42-36.41-42.29-36.41h-32.52l-18.43,92.43h0Z"/>
      <path class="st0" d="M955.77,170.76h-38.86l.04-.21,19.63-98.14h35.28c14.11,0,25.72,3.76,33.56,10.87,7.56,6.86,11.56,16.71,11.56,28.5,0,8.45-1.44,16.39-4.29,23.61-2.81,7.14-6.93,13.42-12.26,18.68-11.07,10.92-26.51,16.69-44.66,16.69ZM917.03,170.66h38.74c18.12,0,33.53-5.76,44.58-16.67,5.32-5.25,9.44-11.52,12.24-18.64,2.84-7.2,4.29-15.14,4.29-23.57,0-11.76-3.99-21.58-11.52-28.42-7.83-7.1-19.41-10.85-33.5-10.85h-35.2l-19.63,98.15ZM955.76,170.51h-38.56v-.06s19.57-97.79,19.57-97.79h35.08c14.05,0,25.6,3.74,33.39,10.81,7.51,6.81,11.48,16.6,11.48,28.31,0,8.4-1.44,16.31-4.27,23.51-2.8,7.12-6.91,13.37-12.2,18.6-11.02,10.88-26.4,16.62-44.49,16.62ZM917.32,170.41h38.44c18.06,0,33.42-5.74,44.42-16.6,5.28-5.21,9.38-11.46,12.18-18.56,2.83-7.19,4.27-15.09,4.27-23.47,0-11.68-3.96-21.44-11.44-28.23-7.78-7.06-19.3-10.79-33.33-10.79h-35l-19.53,97.65ZM956.04,168.09h-35.77l.04-.21,18.51-92.82h32.76c13.82,0,24.59,3.41,31.98,10.12,6.94,6.3,10.61,15.49,10.61,26.59,0,16.31-5.44,30.3-15.75,40.48-10.48,10.35-25.12,15.82-42.33,15.83h-.05ZM920.39,167.99h35.6s.05-.01.05-.01c17.21,0,31.85-5.47,42.31-15.81,10.28-10.15,15.72-24.12,15.72-40.4,0-11.07-3.66-20.23-10.57-26.51-7.38-6.7-18.12-10.1-31.92-10.1h-32.68l-18.51,92.83ZM956.04,167.84h-35.47v-.06s18.45-92.47,18.45-92.47h32.56c26.91,0,42.34,13.29,42.34,36.46,0,33.54-23.26,56.07-57.88,56.07ZM920.69,167.74h35.35c34.56,0,57.78-22.49,57.78-55.97,0-23.11-15.4-36.36-42.24-36.36h-32.48l-18.41,92.33Z"/>
    </g>
  </g>
  <g>
    <g>
      <path class="st0" d="M1068.74,75.24h-36.4l.56-2.66h75.6l-.56,2.66h-36.4l-19.04,95.34h-2.8l19.04-95.34h0Z"/>
      <path class="st0" d="M1052.54,170.63h-2.9v-.06s19.04-95.28,19.04-95.28h-36.4l.58-2.76h75.7l-.58,2.76h-36.4l-19.04,95.34ZM1049.76,170.53h2.7l19.04-95.34h36.4l.54-2.56h-75.5l-.54,2.56h36.4v.06s-19.04,95.28-19.04,95.28Z"/>
    </g>
    <g>
      <path class="st0" d="M1052.6,170.71h-3.05l.03-.15,19.01-95.19h-36.4l.61-2.91h75.86l-.61,2.91h-36.4l-19.04,95.34h0ZM1049.85,170.46h2.54l19.04-95.34h36.4l.51-2.41h-75.34l-.51,2.41h36.4l-.03.15-19.01,95.19h0Z"/>
      <path class="st0" d="M1052.65,170.76h-3.16l.04-.21,19-95.13h-36.4l.63-3.01h75.96l-.63,3.01h-36.4l-19.04,95.34ZM1049.61,170.66h2.96l19.04-95.34h36.4l.59-2.81h-75.76l-.59,2.81h36.4v.06s-19.04,95.28-19.04,95.28ZM1052.43,170.51h-2.64v-.06s19.04-95.28,19.04-95.28h-36.4l.53-2.51h75.44l-.53,2.51h-36.4l-19.04,95.34ZM1049.91,170.41h2.44l19.04-95.34h36.4l.49-2.31h-75.24l-.49,2.31h36.4l-.04.21-19,95.13Z"/>
    </g>
  </g>
  <g>
    <g>
      <path class="st0" d="M28.62,264.93c0-31.36,22.12-59.22,58.94-59.22,14.7,0,26.32,4.48,32.9,12.32l-1.96,1.82c-6.72-7.56-17.08-11.48-31.22-11.48-34.16,0-55.86,25.9-55.86,56.56,0,21.98,14.14,36.96,41.58,36.96,14.42,0,25.9-4.34,34.16-12.04l1.68,2.24c-8.12,7.56-21.42,12.46-36.12,12.46-28.56,0-44.1-15.96-44.1-39.62Z"/>
      <path class="st0" d="M72.72,304.6c-7,0-13.38-.96-18.96-2.87-5.4-1.84-10.06-4.56-13.84-8.08-7.43-6.92-11.36-16.85-11.36-28.72,0-7.83,1.36-15.4,4.03-22.5,2.69-7.14,6.61-13.5,11.64-18.9,5.22-5.61,11.46-9.99,18.55-13.02,7.52-3.22,15.85-4.85,24.76-4.85,14.56,0,26.26,4.38,32.94,12.34l.03.04-.03.03-2,1.85-.03-.04c-6.76-7.61-17.25-11.46-31.18-11.46-8.28,0-16.06,1.52-23.12,4.52-6.71,2.85-12.62,6.97-17.58,12.24-9.74,10.36-15.11,24.47-15.11,39.74,0,11.06,3.63,20.29,10.48,26.69,3.53,3.29,7.9,5.83,12.99,7.54,5.28,1.78,11.35,2.68,18.06,2.68,7.07,0,13.59-1.05,19.37-3.13,5.62-2.02,10.58-5.01,14.75-8.9l.04-.04.03.04,1.71,2.28-.03.03c-8.39,7.81-21.9,12.47-36.15,12.47ZM87.56,205.76c-8.9,0-17.22,1.63-24.72,4.84-7.08,3.03-13.31,7.4-18.52,13-5.02,5.4-8.93,11.75-11.62,18.87-2.67,7.08-4.03,14.64-4.03,22.46,0,11.84,3.92,21.74,11.32,28.65,3.77,3.51,8.41,6.23,13.8,8.06,5.57,1.9,11.93,2.86,18.92,2.86,14.21,0,27.68-4.64,36.05-12.42l-1.62-2.16c-4.17,3.88-9.13,6.87-14.75,8.88-5.8,2.08-12.33,3.13-19.41,3.13-6.71,0-12.8-.9-18.09-2.69-5.1-1.72-9.49-4.27-13.03-7.56-6.88-6.41-10.52-15.67-10.52-26.76,0-15.3,5.37-29.44,15.13-39.81,4.97-5.28,10.9-9.41,17.62-12.27,7.07-3.01,14.86-4.53,23.16-4.53,13.94,0,24.44,3.85,31.22,11.46l1.89-1.75c-6.66-7.91-18.32-12.27-32.83-12.27Z"/>
    </g>
    <g>
      <path class="st0" d="M72.72,304.67c-13.79,0-25.14-3.79-32.85-10.97-7.44-6.94-11.38-16.89-11.38-28.77,0-15.86,5.57-30.58,15.7-41.46,10.89-11.7,25.89-17.89,43.37-17.89,14.58,0,26.3,4.39,33,12.37l.08.09-2.14,1.99-.08-.1c-6.75-7.59-17.22-11.44-31.13-11.44-8.27,0-16.04,1.52-23.09,4.52-6.7,2.85-12.61,6.96-17.56,12.23-9.73,10.34-15.09,24.44-15.09,39.69,0,11.04,3.62,20.25,10.46,26.63,7.16,6.68,17.88,10.2,30.99,10.2,14.06,0,25.53-4.04,34.07-12.01l.1-.09,1.83,2.44-.08.08c-8.4,7.82-21.94,12.49-36.2,12.49ZM87.56,205.83c-17.41,0-32.34,6.16-43.19,17.81-10.08,10.83-15.63,25.49-15.63,41.28,0,11.82,3.91,21.7,11.3,28.59,7.65,7.13,18.95,10.9,32.67,10.9s27.59-4.62,35.95-12.35l-1.53-2.04c-8.58,7.95-20.07,11.98-34.14,11.98-13.18,0-23.96-3.55-31.17-10.27-6.9-6.43-10.54-15.7-10.54-26.81,0-15.32,5.38-29.47,15.15-39.86,4.98-5.29,10.91-9.42,17.64-12.29,7.08-3.01,14.88-4.54,23.19-4.54,13.92,0,24.43,3.84,31.23,11.43l1.78-1.65c-6.66-7.86-18.27-12.18-32.73-12.18h.02Z"/>
      <path class="st0" d="M72.72,304.72c-13.8,0-25.17-3.8-32.88-10.98-7.46-6.95-11.4-16.92-11.4-28.81,0-15.88,5.58-30.61,15.71-41.49,10.9-11.71,25.91-17.91,43.41-17.91,14.6,0,26.33,4.4,33.04,12.39l.11.12-2.22,2.06-.11-.14c-6.74-7.58-17.2-11.42-31.09-11.42-8.27,0-16.03,1.52-23.07,4.52-6.71,2.85-12.61,6.96-17.54,12.22-9.72,10.33-15.08,24.42-15.08,39.66,0,11.02,3.61,20.22,10.44,26.59,7.14,6.66,17.85,10.19,30.96,10.19,14.05,0,25.51-4.04,34.04-12l.14-.13.03.04,1.86,2.47-.11.11c-8.41,7.83-21.96,12.5-36.23,12.5ZM87.56,205.63c-17.46,0-32.45,6.18-43.33,17.87-10.12,10.86-15.69,25.58-15.69,41.43,0,11.86,3.93,21.8,11.36,28.73,7.7,7.17,19.04,10.96,32.82,10.96s27.77-4.66,36.17-12.48l.05-.05-1.77-2.36-.06.05c-8.55,7.98-20.02,12.02-34.1,12.02-13.13,0-23.86-3.53-31.02-10.21-6.85-6.39-10.48-15.61-10.48-26.67,0-15.27,5.36-29.37,15.1-39.72,4.94-5.26,10.86-9.38,17.58-12.24,7.05-3,14.83-4.52,23.11-4.52,13.92,0,24.41,3.85,31.17,11.46l.05.06,2.06-1.92-.05-.05c-6.69-7.97-18.4-12.35-32.96-12.35ZM72.71,304.46c-13.73,0-25.04-3.77-32.7-10.91-7.4-6.9-11.32-16.8-11.32-28.63,0-15.8,5.56-30.48,15.64-41.31,10.86-11.66,25.8-17.82,43.21-17.83h.02c14.46,0,26.09,4.33,32.75,12.2l.03.04-.03.03-1.82,1.68-.03-.04c-6.79-7.57-17.28-11.41-31.19-11.41-8.3,0-16.09,1.53-23.17,4.54-6.72,2.87-12.65,7-17.62,12.28-9.76,10.38-15.14,24.53-15.14,39.83,0,11.1,3.64,20.36,10.52,26.77,7.2,6.71,17.97,10.26,31.14,10.26,14.06,0,25.54-4.03,34.11-11.97l.04-.04.03.04,1.56,2.08-.03.03c-8.25,7.63-22.04,12.36-35.98,12.36ZM87.55,205.88c-17.39,0-32.3,6.16-43.14,17.79-10.07,10.82-15.62,25.47-15.62,41.25,0,11.8,3.9,21.67,11.28,28.55,7.64,7.12,18.93,10.89,32.64,10.89s27.65-4.71,35.88-12.31l-1.47-1.96c-8.58,7.93-20.07,11.96-34.13,11.96-13.2,0-23.99-3.56-31.2-10.28-6.91-6.44-10.56-15.72-10.56-26.85,0-15.33,5.39-29.5,15.16-39.89,4.98-5.29,10.92-9.43,17.66-12.3,7.09-3.01,14.9-4.54,23.21-4.54,13.92,0,24.43,3.84,31.23,11.41l1.71-1.58c-6.65-7.82-18.24-12.12-32.65-12.13Z"/>
    </g>
  </g>
  <g>
    <g>
      <path class="st0" d="M126.06,264.93c0-31.36,22.12-59.22,58.24-59.22,28.56,0,44.1,15.96,44.1,39.62,0,31.36-22.12,59.22-58.24,59.22-28.56,0-44.1-15.96-44.1-39.62ZM225.6,245.34c0-21.98-14.14-36.96-41.58-36.96-33.46,0-55.16,25.9-55.16,56.56,0,21.98,14.14,36.96,41.58,36.96,33.46,0,55.16-25.9,55.16-56.56Z"/>
      <path class="st0" d="M170.16,304.6c-7,0-13.38-.96-18.96-2.87-5.4-1.84-10.06-4.56-13.84-8.08-7.43-6.92-11.36-16.85-11.36-28.72,0-7.82,1.35-15.39,4.02-22.5,2.68-7.13,6.57-13.49,11.56-18.9,5.17-5.6,11.34-9.98,18.34-13.02,7.42-3.22,15.61-4.85,24.36-4.85,7,0,13.38.96,18.96,2.87,5.4,1.84,10.06,4.56,13.84,8.08,7.43,6.92,11.36,16.85,11.36,28.72,0,7.82-1.35,15.39-4.02,22.5-2.68,7.13-6.57,13.49-11.56,18.9-5.17,5.6-11.34,9.98-18.34,13.02-7.42,3.22-15.61,4.85-24.36,4.85ZM184.3,205.76c-8.73,0-16.91,1.63-24.32,4.84-6.99,3.03-13.15,7.4-18.31,13-4.99,5.4-8.87,11.75-11.54,18.87-2.67,7.09-4.02,14.65-4.02,22.46,0,11.84,3.92,21.74,11.32,28.65,3.77,3.51,8.41,6.23,13.8,8.06,5.57,1.9,11.93,2.86,18.92,2.86,8.73,0,16.91-1.63,24.32-4.84,6.99-3.03,13.15-7.4,18.31-13,4.99-5.4,8.87-11.75,11.54-18.87,2.67-7.1,4.02-14.65,4.02-22.47,0-11.84-3.92-21.74-11.32-28.65-3.77-3.51-8.41-6.23-13.8-8.06-5.57-1.9-11.93-2.86-18.92-2.86ZM170.44,301.95c-6.71,0-12.8-.9-18.09-2.69-5.1-1.72-9.49-4.27-13.03-7.56-6.88-6.41-10.52-15.67-10.52-26.76,0-15.26,5.34-29.4,15.05-39.81,4.92-5.28,10.78-9.41,17.41-12.27,6.97-3.01,14.62-4.53,22.75-4.53,6.71,0,12.8.9,18.09,2.69,5.1,1.72,9.49,4.27,13.03,7.56,6.88,6.41,10.52,15.67,10.52,26.76,0,15.26-5.34,29.4-15.05,39.81-4.92,5.28-10.78,9.41-17.41,12.27-6.97,3.01-14.62,4.53-22.75,4.53ZM184.02,208.43c-8.12,0-15.76,1.52-22.71,4.52-6.62,2.85-12.46,6.97-17.38,12.24-9.69,10.39-15.02,24.51-15.02,39.74,0,11.06,3.63,20.29,10.48,26.69,3.53,3.29,7.9,5.83,12.99,7.54,5.28,1.78,11.35,2.68,18.06,2.68,8.12,0,15.76-1.52,22.71-4.52,6.62-2.85,12.46-6.97,17.38-12.24,9.69-10.39,15.02-24.51,15.02-39.74,0-11.06-3.63-20.29-10.48-26.69-3.53-3.29-7.9-5.83-12.99-7.54-5.28-1.78-11.35-2.68-18.06-2.68Z"/>
    </g>
    <g>
      <path class="st0" d="M170.16,304.67c-13.79,0-25.14-3.79-32.85-10.97-7.44-6.94-11.38-16.89-11.38-28.77,0-15.83,5.54-30.55,15.61-41.45,10.8-11.7,25.59-17.89,42.76-17.89,13.79,0,25.14,3.79,32.85,10.97,7.44,6.94,11.38,16.89,11.38,28.77,0,15.83-5.54,30.55-15.61,41.46-10.8,11.7-25.59,17.89-42.76,17.89h0ZM184.3,205.83c-17.1,0-31.82,6.16-42.57,17.81-10.02,10.86-15.54,25.52-15.54,41.29,0,11.82,3.91,21.7,11.3,28.59,7.65,7.13,18.95,10.9,32.67,10.9,17.1,0,31.82-6.16,42.57-17.81,10.02-10.86,15.54-25.52,15.54-41.29,0-11.82-3.91-21.7-11.3-28.59-7.65-7.13-18.95-10.9-32.67-10.9h0ZM170.44,302.03c-13.18,0-23.96-3.55-31.17-10.27-6.9-6.43-10.54-15.7-10.54-26.81,0-15.28,5.35-29.44,15.07-39.86,10.11-10.85,24.4-16.82,40.22-16.82,13.18,0,23.96,3.55,31.17,10.27,6.9,6.43,10.54,15.7,10.54,26.81,0,15.28-5.35,29.44-15.07,39.86-10.11,10.85-24.4,16.82-40.22,16.82h0ZM184.02,208.5c-15.75,0-29.97,5.95-40.04,16.74-9.67,10.38-15,24.47-15,39.69,0,11.04,3.62,20.25,10.46,26.63,7.16,6.68,17.88,10.2,30.99,10.2,15.75,0,29.97-5.95,40.04-16.74,9.67-10.38,15-24.47,15-39.69,0-11.04-3.62-20.25-10.46-26.63-7.16-6.68-17.88-10.2-30.99-10.2h0Z"/>
      <path class="st0" d="M170.16,304.73h-.05c-13.77-.02-25.13-3.82-32.83-10.99-7.46-6.95-11.4-16.92-11.4-28.81,0-15.85,5.55-30.58,15.62-41.48,10.81-11.71,25.61-17.91,42.8-17.91,13.8,0,25.17,3.8,32.88,10.98,7.46,6.95,11.4,16.92,11.4,28.81,0,15.84-5.55,30.58-15.62,41.49-10.81,11.71-25.61,17.91-42.8,17.91ZM184.3,205.64c-17.16,0-31.93,6.18-42.72,17.88-10.06,10.89-15.6,25.59-15.6,41.42,0,11.86,3.93,21.8,11.36,28.73,7.7,7.17,19.04,10.96,32.82,10.96h.05c17.14,0,31.89-6.18,42.67-17.86,10.06-10.9,15.6-25.61,15.6-41.43,0-11.86-3.93-21.8-11.36-28.73-7.7-7.17-19.04-10.96-32.82-10.96ZM170.16,304.47c-13.74,0-25.04-3.77-32.7-10.91-7.4-6.9-11.32-16.8-11.32-28.63,0-15.78,5.52-30.45,15.55-41.32,10.76-11.66,25.49-17.83,42.61-17.83,13.74,0,25.04,3.77,32.7,10.91,7.4,6.9,11.32,16.8,11.32,28.63,0,15.78-5.52,30.45-15.55,41.32-10.76,11.66-25.49,17.83-42.61,17.83ZM184.3,205.88c-17.08,0-31.79,6.15-42.53,17.79-10.01,10.85-15.53,25.5-15.53,41.26,0,11.8,3.9,21.67,11.28,28.55,7.64,7.12,18.93,10.89,32.64,10.89,17.08,0,31.79-6.15,42.53-17.79,10.01-10.85,15.53-25.5,15.53-41.26,0-11.8-3.9-21.67-11.28-28.55-7.64-7.12-18.93-10.89-32.64-10.89ZM170.44,302.08c-13.2,0-23.99-3.56-31.2-10.28-6.91-6.43-10.56-15.72-10.56-26.85,0-15.3,5.36-29.47,15.08-39.89,10.12-10.86,24.41-16.84,40.26-16.84,13.2,0,23.99,3.56,31.2,10.28,6.91,6.43,10.56,15.72,10.56,26.85,0,15.3-5.36,29.47-15.08,39.89-10.12,10.86-24.41,16.84-40.26,16.84ZM184.02,208.32c-15.81,0-30.09,5.97-40.18,16.8-9.71,10.41-15.06,24.55-15.06,39.83,0,11.1,3.64,20.36,10.52,26.77,7.2,6.71,17.97,10.26,31.14,10.26,15.81,0,30.09-5.97,40.18-16.8,9.71-10.41,15.06-24.55,15.06-39.83,0-11.1-3.64-20.36-10.52-26.77-7.2-6.71-17.97-10.26-31.14-10.26ZM170.43,301.81c-13.13,0-23.86-3.53-31.02-10.21-6.85-6.39-10.48-15.61-10.48-26.67,0-15.22,5.33-29.33,15.01-39.72,10.08-10.81,24.32-16.76,40.08-16.76,13.13,0,23.86,3.53,31.02,10.21,6.85,6.39,10.48,15.61,10.48,26.67,0,15.22-5.33,29.33-15.01,39.72-10.08,10.81-24.32,16.76-40.08,16.76ZM184.02,208.55c-15.73,0-29.94,5.94-40,16.72-9.66,10.37-14.99,24.46-14.99,39.66,0,11.02,3.61,20.22,10.44,26.59,7.14,6.66,17.85,10.19,30.96,10.19,15.73,0,29.94-5.94,40-16.72,9.66-10.37,14.99-24.46,14.99-39.66,0-11.02-3.61-20.22-10.44-26.59-7.14-6.66-17.85-10.19-30.96-10.19Z"/>
    </g>
  </g>
  <g>
    <g>
      <path class="st0" d="M329.76,232.17c0,25.2-17.08,38.36-44.38,38.36h-31.36l-6.72,33.6h-2.8l19.6-98h32.9c20.72,0,32.76,9.38,32.76,26.04h0ZM326.96,232.17c0-14.98-10.64-23.38-29.82-23.38h-30.8l-11.76,59.08h30.66c26.46,0,41.72-12.04,41.72-35.7Z"/>
      <path class="st0" d="M247.34,304.18h-2.9v-.06s19.62-98.04,19.62-98.04h32.94c20.85,0,32.81,9.51,32.81,26.09,0,6.2-1.04,11.8-3.1,16.64-2.01,4.73-4.99,8.77-8.87,12.02-3.82,3.2-8.53,5.65-13.99,7.29-5.44,1.63-11.65,2.45-18.47,2.45h-31.32l-6.72,33.6ZM244.56,304.08h2.7l6.72-33.6h31.4c6.8,0,13.01-.82,18.44-2.45,5.45-1.63,10.15-4.08,13.96-7.27,3.87-3.24,6.84-7.28,8.84-11.99,2.05-4.83,3.09-10.42,3.09-16.61,0-16.52-11.92-25.99-32.71-25.99h-32.86l-19.58,97.9ZM285.24,267.92h-30.72v-.06s11.78-59.12,11.78-59.12h30.84c9.55,0,16.99,2.05,22.13,6.08,5.13,4.03,7.74,9.87,7.74,17.35,0,11.67-3.69,20.67-10.96,26.76-7.12,5.96-17.49,8.99-30.81,8.99ZM254.64,267.82h30.6c13.3,0,23.65-3.02,30.75-8.97,7.25-6.07,10.92-15.05,10.92-26.68,0-7.45-2.59-13.26-7.7-17.27-5.12-4.02-12.55-6.06-22.07-6.06h-30.76l-11.74,58.98Z"/>
    </g>
    <g>
      <path class="st0" d="M247.4,304.25h-3.05l.03-.15,19.62-98.1h33c20.9,0,32.88,9.54,32.88,26.17,0,24.46-16.22,38.49-44.5,38.49h-31.26l-6.72,33.6h0ZM244.65,304h2.54l6.72-33.6h31.46c28.12,0,44.25-13.94,44.25-38.24,0-16.47-11.9-25.92-32.63-25.92h-32.8l-19.55,97.75h0ZM285.24,268h-30.81l.03-.15,11.78-59.18h30.9c9.56,0,17.03,2.05,22.18,6.1s7.77,9.9,7.77,17.41c0,11.69-3.69,20.71-10.98,26.82-7.13,5.98-17.52,9.01-30.86,9.01h0ZM254.73,267.75h30.51c13.29,0,23.62-3.01,30.7-8.95,7.23-6.06,10.89-15.01,10.89-26.63,0-7.42-2.58-13.21-7.67-17.21-5.11-4.01-12.52-6.05-22.02-6.05h-30.7l-11.71,58.83h0Z"/>
      <path class="st0" d="M247.4,304.3h-3.11l.04-.21,19.63-98.14h33.04c20.93,0,32.93,9.56,32.93,26.22,0,24.49-16.24,38.54-44.55,38.54h-31.22l-6.71,33.56h-.05s0,.03,0,.03ZM244.41,304.2h2.95l6.72-33.59h31.3c28.25,0,44.45-14.01,44.45-38.44,0-16.6-11.97-26.12-32.83-26.12h-32.96l-19.63,98.15ZM247.23,304.05h-2.6l-.04-.04v-.03s19.56-97.79,19.56-97.79h32.84c20.77,0,32.68,9.47,32.68,25.97,0,24.33-16.15,38.29-44.3,38.29h-31.42l-6.72,33.6ZM244.7,303.95h2.45l6.72-33.6h31.5c28.09,0,44.2-13.92,44.2-38.19,0-16.44-11.88-25.87-32.58-25.87h-32.76l-19.53,97.66ZM285.25,268.06h-.03s-30.85,0-30.85,0l.04-.21,11.79-59.22h30.94c9.58,0,17.05,2.06,22.21,6.11,5.17,4.07,7.79,9.94,7.79,17.45,0,11.71-3.7,20.74-11,26.86-7.14,5.99-17.53,9.02-30.89,9.02ZM254.49,267.95h30.78c13.33,0,23.69-3.02,30.81-8.99,7.27-6.1,10.96-15.11,10.96-26.78,0-7.48-2.61-13.33-7.75-17.37-5.14-4.04-12.59-6.09-22.15-6.09h-30.86l-11.79,59.23ZM285.24,267.8h-30.56v-.06l11.72-58.88h30.74c9.51,0,16.93,2.04,22.05,6.06,5.1,4.01,7.69,9.81,7.69,17.25,0,11.63-3.67,20.6-10.91,26.67-7.09,5.95-17.43,8.96-30.73,8.96ZM254.79,267.7h30.45c13.28,0,23.6-3.01,30.67-8.94,7.21-6.05,10.87-14.99,10.87-26.59,0-7.4-2.57-13.18-7.65-17.17-5.11-4.01-12.51-6.04-21.99-6.04h-30.66l-11.69,58.74Z"/>
    </g>
  </g>
  <g>
    <g>
      <path class="st0" d="M364.34,208.79l-8.82,44.24h54.04l-.56,2.66h-54.04l-9.1,45.78h62.44l-.56,2.66h-65.24l19.6-98h63.14l-.56,2.66h-60.34Z"/>
      <path class="st0" d="M407.78,304.18h-65.34v-.06s19.62-98.04,19.62-98.04h63.24l-.58,2.76h-60.34l-8.8,44.14h54.04l-.58,2.76h-54.04l-9.08,45.68h62.44l-.58,2.76ZM342.56,304.08h65.14l.54-2.56h-62.44v-.06s9.12-45.82,9.12-45.82h54.04l.54-2.56h-54.04v-.06s8.84-44.28,8.84-44.28h60.34l.54-2.56h-63.04l-19.58,97.9Z"/>
    </g>
    <g>
      <path class="st0" d="M407.84,304.25h-65.49l.03-.15,19.62-98.1h63.4l-.61,2.91h-60.34l-8.77,43.99h54.04l-.61,2.91h-54.04l-9.05,45.53h62.44l-.61,2.91h-.01ZM342.65,304h64.99l.51-2.41h-62.44l.03-.15,9.12-45.88h54.04l.51-2.41h-54.04l8.87-44.49h60.34l.51-2.41h-62.88l-19.55,97.75h-.01Z"/>
      <path class="st0" d="M407.89,304.3h-65.6l.04-.21,19.63-98.14h63.5v.06s-.63,2.95-.63,2.95h-60.34l-8.75,43.89h54.04l-.63,3.01h-54.04l-9.03,45.43h62.44l-.63,3.01ZM342.41,304.2h65.4l.59-2.81h-62.44v-.06s9.07-45.57,9.07-45.57h54.04l.59-2.81h-54.04v-.06s8.79-44.03,8.79-44.03h60.34l.59-2.81h-63.3l-19.63,98.15ZM407.68,304.05h-65.03v-.05h-.04s19.56-97.8,19.56-97.8h62.98l-.53,2.51h-60.34l-8.85,44.39h54.04l-.53,2.51h-54.04l-9.13,45.93h62.44l-.53,2.51ZM342.72,303.95h64.88l.49-2.31h-62.44l.04-.21,9.13-45.92h54.04l.49-2.31h-54.04v-.06s8.89-44.53,8.89-44.53h60.34l.49-2.31h-62.78l-19.53,97.65Z"/>
    </g>
  </g>
  <g>
    <g>
      <path class="st0" d="M532.62,206.13l-19.6,98h-2.38l-53.2-93.38-18.62,93.38h-2.8l19.6-98h2.38l53.2,93.38,18.62-93.38h2.8,0Z"/>
      <path class="st0" d="M513.06,304.18h-2.45v-.03s-53.15-93.26-53.15-93.26l-18.6,93.29h-2.9v-.06s19.62-98.04,19.62-98.04h2.45v.03s53.15,93.26,53.15,93.26l18.6-93.29h2.9v.06s-19.62,98.04-19.62,98.04ZM510.67,304.08h2.31l19.58-97.9h-2.7l-18.64,93.47-.07-.12-53.19-93.35h-2.31l-19.58,97.9h2.7l18.64-93.47.07.12,53.19,93.35Z"/>
    </g>
    <g>
      <path class="st0" d="M513.12,304.25h-2.56l-.04-.06-53.03-93.09-18.57,93.15h-3.05l.03-.15,19.62-98.1h2.56l.04.06,53.03,93.09,18.57-93.15h3.05l-.03.15-19.62,98.1h0ZM510.71,304h2.2l19.55-97.75h-2.54l-18.67,93.61-.17-.29-53.16-93.32h-2.2l-19.55,97.75h2.54l18.67-93.61.17.29,53.16,93.32h0Z"/>
      <path class="st0" d="M513.16,304.3h-2.63l-.05-.08-52.97-92.98-18.55,93.06h-3.15l.04-.21,19.63-98.14h2.63l.05.08,52.97,92.98,18.55-93.06h3.15l-.04.21-19.63,98.14ZM510.59,304.2h2.49l19.63-98.15h-2.95l-18.59,93.24-.07-.12-53.05-93.12h-2.49l-19.63,98.15h2.95l18.59-93.24.07.12,53.05,93.12ZM512.95,304.05h-2.27v-.03s-53.28-93.5-53.28-93.5l-18.65,93.52h-2.64v-.06s19.57-97.79,19.57-97.79h2.27v.03s53.28,93.5,53.28,93.5l18.65-93.52h2.64v.06s-19.57,97.79-19.57,97.79ZM510.74,303.95h2.13l19.53-97.65h-2.44l-18.69,93.7-.24-.4-53.15-93.3h-2.13l-19.53,97.65h2.44l18.69-93.7.24.4,53.15,93.3Z"/>
    </g>
  </g>
  <g>
    <g>
      <path class="st0" d="M646.86,206.13l-19.6,98h-2.8l9.66-48.44h-71.4l-9.66,48.44h-2.8l19.6-98h2.8l-9.38,46.9h71.4l9.38-46.9h2.8Z"/>
      <path class="st0" d="M627.3,304.18h-2.9v-.06s9.66-48.38,9.66-48.38h-71.3l-9.66,48.44h-2.9v-.06s19.62-98.04,19.62-98.04h2.9v.06s-9.38,46.84-9.38,46.84h71.3l9.38-46.9h2.9v.06s-19.62,98.04-19.62,98.04ZM624.52,304.08h2.7l19.58-97.9h-2.7l-9.38,46.9h-71.5v-.06s9.38-46.84,9.38-46.84h-2.7l-19.58,97.9h2.7l9.66-48.44h71.5v.06s-9.66,48.38-9.66,48.38Z"/>
    </g>
    <g>
      <path class="st0" d="M627.36,304.25h-3.05l.03-.15,9.63-48.29h-71.15l-9.66,48.44h-3.06l.03-.15,19.62-98.1h3.06l-.03.15-9.35,46.75h71.15l9.38-46.9h3.06l-.03.15-19.62,98.1h-.01ZM624.61,304h2.54l19.55-97.75h-2.55l-9.38,46.9h-71.65l.03-.15,9.35-46.75h-2.55l-19.55,97.75h2.55l9.66-48.44h71.66l-.03.15-9.63,48.29h0Z"/>
      <path class="st0" d="M627.41,304.3h-3.16l.04-.21,9.62-48.23h-71.05l-9.66,48.44h-3.16l.04-.21,19.63-98.14h3.16l-.04.21-9.34,46.69h71.05l9.38-46.9h3.16l-.04.21-19.63,98.14ZM624.37,304.2h2.96l19.63-98.15h-2.96l-9.38,46.9h-71.25v-.06s9.38-46.84,9.38-46.84h-2.96l-19.63,98.15h2.96l9.66-48.44h71.25v.06s-9.66,48.38-9.66,48.38ZM627.19,304.05h-2.64v-.06s9.66-48.38,9.66-48.38h-71.56l-9.66,48.44h-2.65v-.06s19.57-97.79,19.57-97.79h2.65v.06s-9.38,46.84-9.38,46.84h71.55l9.38-46.9h2.65v.06s-19.57,97.79-19.57,97.79ZM624.67,303.95h2.44l19.53-97.65h-2.45l-9.38,46.9h-71.75l.04-.21,9.34-46.69h-2.45l-19.53,97.65h2.45l9.66-48.44h71.76l-.04.21-9.62,48.23Z"/>
    </g>
  </g>
  <g>
    <g>
      <path class="st0" d="M730.16,274.59h-60.06l-19.6,29.54h-3.36l65.1-98h2.8l25.9,98h-2.94l-7.84-29.54ZM729.46,271.93l-16.24-62.16-41.3,62.16h57.54Z"/>
      <path class="st0" d="M741,304.18h-3.04v-.04s-7.84-29.5-7.84-29.5h-60l-19.6,29.54h-3.48l.05-.08,65.12-98.02h2.86v.04s25.93,98.06,25.93,98.06ZM738.04,304.08h2.84l-25.87-97.9h-2.74l-65.03,97.9h3.24l19.6-29.54h60.12v.04s7.84,29.5,7.84,29.5ZM729.52,271.98h-57.7l.05-.08,41.36-62.25,16.28,62.33ZM672.01,271.88h57.38l-16.2-61.99-41.19,61.99Z"/>
    </g>
    <g>
      <path class="st0" d="M741.1,304.25h-3.2l-.03-.09-7.81-29.45h-59.9l-19.6,29.54h-3.66l.13-.19,65.14-98.06h2.96l.02.09,25.94,98.16h0ZM738.1,304h2.68l-25.83-97.75h-2.64l-64.93,97.75h3.06l19.6-29.54h60.22l.03.09,7.81,29.45h0ZM729.62,272.05h-57.94l.13-.19,41.46-62.39.07.27,16.28,62.32h0ZM672.15,271.8h57.14l-16.13-61.73-41.02,61.73h.01Z"/>
      <path class="st0" d="M741.1,304.3h-3.24l-.04-.12-7.8-29.42h-59.83l-19.6,29.54h-3.78l.18-.27,65.15-98.08h3.03l.03.13,25.94,98.16h-.04v.06ZM737.94,304.2h3.09l-25.94-98.15h-2.89l-65.2,98.15h3.54l19.6-29.54h59.96v.04s7.84,29.5,7.84,29.5ZM740.84,304.05h-2.78v-.04s-7.84-29.5-7.84-29.5h-60.16l-19.6,29.54h-3.18l.05-.08,64.95-97.77h2.71v.04s25.86,97.81,25.86,97.81ZM738.14,303.95h2.58l-25.8-97.65h-2.58l-64.86,97.65h2.94l19.6-29.54h60.28l.04.12,7.8,29.42ZM729.67,272.45l-.09-.35h-57.99l.18-.27,41.52-62.48,16.37,62.65h.01v.45ZM671.77,272h57.78l-16.3-62.41-41.47,62.41ZM729.35,271.85h-57.31l.05-.08,41.08-61.82,16.17,61.9ZM672.23,271.75h56.99l-16.09-61.56-40.91,61.56Z"/>
    </g>
  </g>
  <g>
    <g>
      <path class="st0" d="M850.55,218.17l-1.96,1.82c-6.72-7.7-17.5-11.62-31.92-11.62-34.16,0-55.86,25.9-55.86,56.56,0,21.98,14.14,36.96,41.58,36.96,12.74,0,22.68-4.2,31.22-11.2l6.86-34.58h2.66l-7.14,35.84c-8.26,7.56-20.3,12.6-33.88,12.6-28.56,0-44.1-15.96-44.1-39.62,0-31.36,22.12-59.22,58.94-59.22,14.98,0,27.02,4.62,33.6,12.46h0Z"/>
      <path class="st0" d="M802.11,304.6c-7,0-13.38-.96-18.96-2.87-5.4-1.84-10.06-4.56-13.84-8.08-7.43-6.92-11.36-16.85-11.36-28.72,0-7.83,1.36-15.4,4.03-22.5,2.69-7.14,6.61-13.5,11.64-18.9,5.22-5.61,11.46-9.99,18.55-13.02,7.52-3.22,15.85-4.85,24.76-4.85,7.41,0,14.13,1.11,19.97,3.29,5.77,2.16,10.37,5.25,13.67,9.18l.03.04-.04.03-2,1.85-.03-.04c-6.72-7.7-17.45-11.6-31.88-11.6-8.28,0-16.06,1.52-23.12,4.52-6.71,2.85-12.62,6.97-17.58,12.24-9.74,10.36-15.11,24.47-15.11,39.74,0,11.06,3.63,20.29,10.48,26.69,3.53,3.29,7.9,5.83,12.99,7.54,5.28,1.78,11.35,2.68,18.06,2.68,6.21,0,11.82-.97,17.17-2.97,4.94-1.85,9.52-4.53,14.01-8.21l6.86-34.6h2.76v.06s-7.15,35.86-7.15,35.86h-.01c-4.19,3.84-9.36,7-14.96,9.16-5.99,2.3-12.37,3.47-18.95,3.47ZM816.95,205.76c-8.9,0-17.22,1.63-24.72,4.84-7.08,3.03-13.31,7.4-18.52,13-5.02,5.4-8.93,11.75-11.62,18.87-2.67,7.08-4.03,14.64-4.03,22.46,0,11.84,3.92,21.74,11.32,28.65,3.77,3.51,8.41,6.23,13.8,8.06,5.57,1.9,11.94,2.86,18.92,2.86,6.57,0,12.94-1.17,18.92-3.46,5.59-2.15,10.74-5.3,14.92-9.11l7.12-35.76h-2.56l-6.85,34.56h-.01c-4.5,3.7-9.09,6.39-14.05,8.24-5.36,2-10.98,2.98-17.2,2.98-6.71,0-12.8-.9-18.09-2.69-5.1-1.72-9.49-4.27-13.03-7.56-6.88-6.41-10.52-15.67-10.52-26.76,0-15.3,5.37-29.44,15.13-39.81,4.97-5.28,10.9-9.41,17.62-12.27,7.07-3.01,14.86-4.53,23.16-4.53,14.44,0,25.18,3.9,31.92,11.6l1.89-1.75c-3.29-3.91-7.86-6.97-13.6-9.12-5.83-2.18-12.53-3.29-19.93-3.29Z"/>
    </g>
    <g>
      <path class="st0" d="M802.11,304.67c-13.79,0-25.14-3.79-32.85-10.97-7.44-6.94-11.38-16.89-11.38-28.77,0-15.86,5.57-30.58,15.7-41.46,10.89-11.7,25.89-17.89,43.37-17.89,14.74,0,27.03,4.56,33.7,12.5l.08.09-2.14,1.99-.08-.1c-6.7-7.68-17.41-11.58-31.83-11.58-8.27,0-16.04,1.52-23.09,4.52-6.7,2.85-12.61,6.96-17.56,12.23-9.73,10.34-15.09,24.44-15.09,39.69,0,11.04,3.62,20.25,10.46,26.63,7.16,6.68,17.88,10.2,30.99,10.2,11.77,0,21.95-3.65,31.11-11.14l6.87-34.64h2.92l-.03.15-7.15,35.88-.03.03c-8.77,8.03-21.15,12.63-33.96,12.63h0ZM816.95,205.83c-17.41,0-32.34,6.16-43.19,17.81-10.08,10.83-15.63,25.49-15.63,41.28,0,11.82,3.91,21.7,11.3,28.59,7.65,7.13,18.95,10.9,32.67,10.9,12.74,0,25.04-4.57,33.77-12.54l7.1-35.65h-2.41l-6.85,34.52-.04.03c-9.22,7.55-19.46,11.23-31.3,11.23-13.18,0-23.96-3.55-31.17-10.27-6.9-6.43-10.54-15.7-10.54-26.81,0-15.32,5.38-29.47,15.15-39.86,4.98-5.29,10.91-9.42,17.64-12.29,7.08-3.01,14.88-4.54,23.19-4.54,14.43,0,25.17,3.89,31.93,11.57l1.78-1.65c-6.64-7.83-18.81-12.32-33.43-12.32h.03Z"/>
      <path class="st0" d="M802.13,304.72h-.02c-13.8,0-25.17-3.8-32.88-10.98-7.46-6.96-11.4-16.92-11.4-28.81,0-15.88,5.58-30.61,15.71-41.49,10.9-11.71,25.91-17.91,43.41-17.91,14.76,0,27.06,4.56,33.74,12.52l.11.12-.04.03-2.18,2.03-.11-.14c-6.69-7.67-17.39-11.56-31.79-11.56-8.27,0-16.03,1.52-23.07,4.52-6.7,2.85-12.61,6.96-17.54,12.22-9.72,10.33-15.08,24.42-15.08,39.66,0,11.02,3.61,20.22,10.45,26.59,7.14,6.66,17.85,10.19,30.96,10.19,11.75,0,21.91-3.64,31.06-11.12l6.88-34.66h3.02l-.04.21-7.15,35.89-.04.04c-8.77,8.03-21.16,12.64-33.98,12.64h0ZM816.95,205.63c-17.46,0-32.45,6.18-43.33,17.87-10.12,10.86-15.69,25.58-15.69,41.43,0,11.86,3.93,21.8,11.36,28.73,7.69,7.16,19.03,10.95,32.8,10.96h0s.02,0,.02,0c12.8,0,25.17-4.6,33.93-12.62l.02-.02,7.17-35.96h-2.82l-6.87,34.62h-.01c-9.18,7.51-19.36,11.16-31.14,11.16-13.13,0-23.86-3.53-31.02-10.21-6.85-6.39-10.48-15.61-10.48-26.67,0-15.27,5.36-29.37,15.1-39.72,4.95-5.27,10.86-9.39,17.58-12.24,7.05-3,14.83-4.52,23.11-4.52,14.43,0,25.15,3.9,31.87,11.6l.05.06,2.06-1.92-.05-.05c-6.66-7.93-18.93-12.48-33.66-12.48ZM802.1,304.46c-13.73,0-25.04-3.77-32.7-10.91-7.4-6.9-11.32-16.8-11.32-28.63,0-15.8,5.56-30.48,15.64-41.31,10.86-11.66,25.79-17.82,43.2-17.83h.03c14.61,0,26.79,4.5,33.44,12.34l.03.04-.04.03-1.82,1.68-.03-.04c-6.75-7.67-17.48-11.55-31.89-11.55-8.3,0-16.09,1.53-23.17,4.54-6.72,2.87-12.65,7-17.62,12.28-9.76,10.38-15.14,24.52-15.14,39.83,0,11.1,3.64,20.36,10.52,26.77,7.2,6.71,17.97,10.26,31.14,10.26,11.82,0,22.05-3.67,31.27-11.22l.03-.02,6.85-34.54h2.51v.06s-7.11,35.67-7.11,35.67h-.01c-8.74,7.99-21.06,12.56-33.8,12.56ZM816.94,205.88c-17.38,0-32.3,6.16-43.14,17.79-10.07,10.82-15.62,25.47-15.62,41.25,0,11.8,3.9,21.67,11.28,28.55,7.64,7.12,18.93,10.89,32.64,10.89,12.71,0,25-4.56,33.72-12.52l7.08-35.58h-2.31l-6.85,34.5-.06.04c-9.23,7.56-19.48,11.24-31.33,11.24-13.2,0-23.99-3.56-31.2-10.28-6.91-6.44-10.56-15.72-10.56-26.85,0-15.33,5.38-29.5,15.16-39.89,4.98-5.29,10.92-9.43,17.66-12.3,7.09-3.01,14.9-4.54,23.21-4.54,14.42,0,25.16,3.88,31.93,11.55l1.71-1.58c-6.63-7.79-18.78-12.26-33.34-12.27Z"/>
    </g>
  </g>
  <g>
    <g>
      <path class="st0" d="M889.61,208.79l-8.82,44.24h54.04l-.56,2.66h-54.04l-9.1,45.78h62.44l-.56,2.66h-65.24l19.6-98h63.14l-.56,2.66h-60.34Z"/>
      <path class="st0" d="M933.05,304.18h-65.34v-.06s19.62-98.04,19.62-98.04h63.24l-.58,2.76h-60.34l-8.8,44.14h54.04l-.58,2.76h-54.04l-9.08,45.68h62.44l-.58,2.76ZM867.83,304.08h65.14l.54-2.56h-62.44v-.06s9.12-45.82,9.12-45.82h54.04l.54-2.56h-54.04v-.06s8.84-44.28,8.84-44.28h60.34l.54-2.56h-63.04l-19.58,97.9Z"/>
    </g>
    <g>
      <path class="st0" d="M933.11,304.25h-65.49l.03-.15,19.62-98.1h63.4l-.61,2.91h-60.34l-8.77,43.99h54.04l-.61,2.91h-54.04l-9.05,45.53h62.44l-.61,2.91h-.01ZM867.92,304h64.99l.51-2.41h-62.44l.03-.15,9.12-45.88h54.04l.51-2.41h-54.04l.03-.15,8.84-44.34h60.34l.51-2.41h-62.88l-19.55,97.75h-.01Z"/>
      <path class="st0" d="M933.16,304.3h-65.6l.04-.21,19.63-98.14h63.5v.06s-.63,2.95-.63,2.95h-60.34l-8.75,43.89h54.04l-.63,3.01h-54.04l-9.03,45.43h62.44l-.63,3.01ZM867.68,304.2h65.4l.59-2.81h-62.44v-.06s9.07-45.57,9.07-45.57h54.04l.59-2.81h-54.04v-.06s8.79-44.03,8.79-44.03h60.34l.59-2.81h-63.3l-19.63,98.15ZM932.95,304.05h-65.03v-.05h-.04s19.56-97.8,19.56-97.8h62.98l-.53,2.51h-60.34l-8.85,44.39h54.04l-.53,2.51h-54.04l-9.13,45.93h62.44l-.53,2.51ZM867.99,303.95h64.88l.49-2.31h-62.44l.04-.21,9.13-45.92h54.04l.49-2.31h-54.04l.04-.21,8.85-44.38h60.34l.49-2.31h-62.78l-19.53,97.65Z"/>
    </g>
  </g>
  <g>
    <g>
      <path class="st0" d="M1057.89,206.13l-19.6,98h-2.38l-53.2-93.38-18.62,93.38h-2.8l19.6-98h2.38l53.2,93.38,18.62-93.38h2.8Z"/>
      <path class="st0" d="M1038.33,304.18h-2.45v-.03s-53.15-93.26-53.15-93.26l-18.6,93.29h-2.9v-.06s19.62-98.04,19.62-98.04h2.45v.03s53.15,93.26,53.15,93.26l18.6-93.29h2.9v.06s-19.62,98.04-19.62,98.04ZM1035.94,304.08h2.31l19.58-97.9h-2.7l-18.64,93.47-.07-.12-53.19-93.35h-2.31l-19.58,97.9h2.7l18.64-93.47.07.12,53.19,93.35Z"/>
    </g>
    <g>
      <path class="st0" d="M1038.39,304.25h-2.55l-.04-.06-53.04-93.09-18.57,93.15h-3.05l.03-.15,19.62-98.1h2.55l.04.06,53.04,93.09,18.57-93.15h3.05l-.03.15-19.62,98.1h0ZM1035.98,304h2.21l19.55-97.75h-2.54l-18.67,93.61-.17-.29-53.16-93.32h-2.21l-19.55,97.75h2.54l18.67-93.61.17.29,53.16,93.32h0Z"/>
      <path class="st0" d="M1038.43,304.3h-2.62l-.05-.08-52.98-92.98-18.55,93.06h-3.15l.04-.21,19.63-98.14h2.62l.05.08,52.98,92.98,18.55-93.06h3.15l-.04.21-19.63,98.14ZM1035.87,304.2h2.48l19.63-98.15h-2.95l-18.59,93.24-.07-.12-53.06-93.12h-2.48l-19.63,98.15h2.95l18.59-93.24.07.12,53.06,93.12ZM1038.23,304.05h-2.28v-.03s-53.28-93.5-53.28-93.5l-18.65,93.52h-2.64v-.06s19.57-97.79,19.57-97.79h2.28v.03s53.28,93.5,53.28,93.5l18.65-93.52h2.64v.06s-19.57,97.79-19.57,97.79ZM1036.01,303.95h2.14l19.53-97.65h-2.44l-18.69,93.7-.24-.4-53.15-93.3h-2.14l-19.53,97.65h2.44l18.69-93.7.24.4,53.15,93.3Z"/>
    </g>
  </g>
</svg>