<?xml version="1.0" encoding="UTF-8"?>
<svg id="Layer_1" xmlns="http://www.w3.org/2000/svg" version="1.1" viewBox="0 0 139.43 148.78">
  <!-- Generator: Adobe Illustrator 30.3.0, SVG Export Plug-In . SVG Version: 2.1.3 Build 182)  -->
  <defs>
    <style>
      .st0 {
        fill: #334c56;
      }
    </style>
  </defs>
  <path class="st0" d="M75.82,148.25c-.68,0-1.35-.04-2.04-.08l-.28-.02c-3.63-.21-9.42-3.84-10.3-11-1.24-10.01,1.81-19.62,9.59-40.78,5.15-13.98,9.69-23.27,10.54-24.99l.04-.08c-4.05,1.88-7.64,3.17-10.58,4.05-8.55,2.54-15.36,4.83-21.01,7.05-.82,1.75-1.71,3.78-2.71,6.05-4.12,9.34-9.75,22.14-19.63,37.46-7.6,11.79-14.96,22.34-21.6,22.1-4.74-.18-7.66-3.79-7.82-9.64-.42-15.02,12.22-30.45,15.37-33.47,11.57-11.09,18.11-17.35,34.93-24.07.09-.2.19-.39.28-.58l1.41-2.89c8.32-17.04,16.93-34.67,22.79-52.94.17-.52.36-1.07.56-1.65,1.17-3.34,2.62-7.49,1.64-12.74l-.04-.25c-.58-3.82-2.77-6.19-6.52-7.06-3.74-.86-6.69-1.54-15.45,1.73-8.05,3.01-27.03,11.82-29.52,28.61-.43,2.91.47,6.52,2.01,8.06,1.88,1.88,4.08,2.84,6.49,2.78,3.39-.05,7.12-2.07,10.5-5.68,3.71-3.98,7.33-9.19,7.06-11.84-.44-4.18-4.55-4.09-5.8-3.97-3.56.35-7.19,2.78-6.91,5.83.05.52.24.71.39.79.47.3,1.32.2,1.81.09.53-.19,1.07-.33,1.5.2l.06,1.16c-.16.25-.53.43-.98.55,0,0-.02,0-.03.01h0c-.83.2-1.92.2-2.49.06-1.32-.32-2.12-1.28-2.25-2.69-.41-4.37,4.2-7.55,8.7-8,4.45-.44,7.57,1.82,7.99,5.75.46,4.4-5.69,11.38-7.58,13.42-3.75,4.01-7.99,6.25-11.93,6.31-2.95.04-5.7-1.12-7.94-3.37-1.99-1.99-3.1-6.19-2.57-9.76C26.12,14.92,45.9,5.71,54.28,2.57c8.7-3.25,12.08-2.85,16.61-1.81,3.18.74,7.16,2.85,8.05,8.71l.03.18c1.08,5.78-.54,10.4-1.72,13.77-.2.56-.38,1.1-.54,1.6-5.91,18.41-14.54,36.1-22.9,53.21l-.75,1.53c5.29-2,11.55-4.06,19.16-6.33,3.42-1.02,7.71-2.6,12.6-5.05,3.47-7,6.58-13.4,9.37-19.13C110.25,16.29,116.89,2.65,128.16,1.88c4.42-.3,7.89,1.46,9.79,4.95,2.85,5.24-1.85,13.87-4.91,18.55-16.18,24.76-33.49,37.71-46.71,44.48-.4.8-.79,1.6-1.2,2.41-.85,1.7-5.34,10.91-10.46,24.79-7.67,20.83-10.67,30.27-9.49,39.84.82,6.61,6.14,9.11,8.43,9.25l.29.02c5.92.36,9.83.6,43.99-33.05l.87-.79,1.35,1.48-.84.76c-31.14,30.68-37.62,33.68-43.44,33.68h-.01ZM49.08,83.5c-15.05,6.31-21.42,12.4-32.31,22.84-3.02,2.89-15.16,17.68-14.75,31.97.08,2.79.95,7.51,5.9,7.7,5.56.18,13.16-10.82,19.84-21.18,9.79-15.19,15.39-27.9,19.48-37.18.66-1.49,1.26-2.87,1.84-4.14h0ZM129.1,3.85c-.28,0-.54,0-.8.03-10.12.69-16.61,14.03-32.3,46.25-2.46,5.05-5.17,10.62-8.16,16.67,12.63-6.95,28.54-19.58,43.52-42.5,1.77-2.71,7.34-11.89,4.83-16.5-1.73-3.18-4.67-3.94-7.09-3.94h0Z"/>
  <path d="M75.83,148.38h0c-.67,0-1.31-.04-1.99-.08l-.34-.02c-3.67-.21-9.53-3.89-10.42-11.11-1.24-10.03,1.81-19.65,9.6-40.84,4.77-12.94,9.05-21.97,10.43-24.77-3.46,1.59-6.91,2.9-10.28,3.91-8.44,2.51-15.29,4.81-20.95,7.03-.76,1.62-1.56,3.45-2.49,5.56l-.25.58c-4.11,9.32-9.74,22.09-19.58,37.34-7.53,11.68-14.84,22.16-21.48,22.16-.08,0-.15,0-.23,0-4.81-.18-7.78-3.83-7.94-9.76-.42-15.05,12.25-30.54,15.41-33.56,11.67-11.18,18.1-17.35,34.92-24.08.05-.1.1-.21.15-.31.04-.08.08-.15.11-.23l1.42-2.92c8.32-17.03,16.92-34.64,22.77-52.89.16-.49.34-1,.52-1.54l.04-.11c1.16-3.32,2.61-7.45,1.63-12.68l-.04-.25c-.57-3.76-2.73-6.1-6.43-6.96-3.72-.85-6.65-1.53-15.38,1.73-8.03,3-26.96,11.79-29.44,28.51-.42,2.87.46,6.44,1.97,7.95,1.88,1.88,4.02,2.8,6.4,2.74,3.35-.05,7.05-2.05,10.41-5.64,3.69-3.96,7.29-9.12,7.03-11.74-.43-4.04-4.44-3.97-5.66-3.86-3.5.34-7.07,2.71-6.8,5.69.04.36.14.59.32.69.4.25,1.15.21,1.72.08.4-.15,1.1-.4,1.62.24l.03.03.06,1.24-.02.03c-.17.26-.52.46-1.05.6h0s-.03.01-.03.01c-.88.21-1.99.2-2.55.06-1.38-.33-2.21-1.33-2.34-2.8-.42-4.44,4.25-7.68,8.81-8.14,4.5-.44,7.7,1.85,8.13,5.86.15,1.43-.29,5.62-7.61,13.52-3.77,4.03-8.04,6.29-12.02,6.35-.05,0-.1,0-.15,0-2.94,0-5.66-1.18-7.88-3.41-2.02-2.02-3.14-6.26-2.6-9.87C26,14.86,45.83,5.6,54.24,2.45c8.73-3.26,12.13-2.86,16.68-1.81,3.22.75,7.25,2.89,8.15,8.81l.03.18c1.08,5.8-.54,10.44-1.72,13.82-.18.51-.36,1.03-.54,1.61-5.94,18.5-14.56,36.15-22.91,53.23l-.61,1.25c5.13-1.93,11.31-3.96,18.87-6.22,4.11-1.23,8.33-2.92,12.54-5.02,3.19-6.43,6.1-12.42,8.68-17.71l.7-1.44C110.17,16.17,116.82,2.53,128.15,1.76c4.47-.31,7.98,1.48,9.91,5.02,2.88,5.3-1.84,13.98-4.92,18.68-16.69,25.54-34.61,38.29-46.72,44.5-.16.31-.31.62-.46.94-.24.48-.47.96-.72,1.44-.51,1.03-5.17,10.46-10.45,24.78-7.66,20.8-10.66,30.22-9.48,39.78.81,6.51,6.05,9,8.31,9.14l.29.02c5.88.37,9.77.6,43.89-33.01l.97-.88,1.52,1.67-.93.84c-31.83,31.37-37.9,33.71-43.52,33.71ZM83.64,71.04l-.2.4c-1.23,2.49-5.63,11.66-10.53,24.98-7.77,21.15-10.82,30.75-9.58,40.72.87,7.08,6.59,10.68,10.18,10.89l.34.02c.68.04,1.32.08,1.98.08h0c5.56,0,11.58-2.34,43.35-33.64l.75-.68-1.18-1.29-.78.71c-34.19,33.68-38.13,33.44-44.08,33.08l-.29-.02c-2.33-.14-7.72-2.7-8.55-9.36-1.19-9.61,1.82-19.06,9.5-39.9,5.29-14.33,9.95-23.77,10.47-24.8.24-.48.48-.96.72-1.44.16-.32.32-.65.48-.97l.02-.04.04-.02c12.08-6.19,29.99-18.92,46.66-44.44,3.04-4.65,7.73-13.24,4.91-18.42-1.88-3.45-5.32-5.18-9.67-4.89-11.19.76-17.82,14.37-33.84,47.24l-.7,1.44c-2.58,5.3-5.5,11.3-8.7,17.75l-.02.04-.04.02c-4.24,2.12-8.48,3.82-12.62,5.06-7.71,2.3-13.97,4.37-19.15,6.33l-.3.11.89-1.81c8.34-17.07,16.96-34.71,22.89-53.19.19-.58.36-1.1.54-1.6,1.18-3.37,2.79-7.96,1.71-13.71l-.03-.18c-.88-5.79-4.81-7.88-7.96-8.61-4.51-1.04-7.88-1.43-16.54,1.81-8.36,3.13-28.09,12.34-30.7,30.09-.52,3.53.57,7.68,2.53,9.65,2.21,2.22,4.91,3.37,7.85,3.33,3.91-.06,8.11-2.29,11.84-6.27,1.88-2.03,8-9.01,7.55-13.32-.41-3.86-3.49-6.07-7.85-5.64-4.44.44-8.99,3.58-8.59,7.86.12,1.36.89,2.27,2.15,2.58.52.13,1.58.14,2.41-.05.02-.01.05-.02.06-.02.43-.12.73-.28.87-.46l-.06-1.08c-.37-.43-.83-.31-1.34-.13-.32.07-1.35.26-1.92-.1-.25-.13-.4-.43-.45-.88-.29-3.13,3.4-5.61,7.02-5.97,1.28-.12,5.49-.19,5.94,4.08.27,2.7-3.36,7.94-7.09,11.94-3.41,3.64-7.17,5.67-10.59,5.72-2.43.07-4.65-.89-6.58-2.82-1.56-1.56-2.48-5.23-2.04-8.17,2.5-16.86,21.53-25.69,29.6-28.71,8.79-3.28,11.76-2.6,15.52-1.73,3.8.88,6.03,3.29,6.62,7.16l.04.25c.99,5.29-.47,9.45-1.64,12.8l-.04.11c-.19.54-.36,1.05-.52,1.54-5.86,18.27-14.46,35.89-22.78,52.93v.03s-1.42,2.89-1.42,2.89c-.04.08-.07.15-.11.23-.06.11-.11.23-.17.35l-.02.05-.05.02c-16.81,6.72-23.23,12.87-34.89,24.04-3.14,3.01-15.75,18.42-15.33,33.38.16,5.78,3.04,9.34,7.7,9.52.07,0,.15,0,.22,0,6.52,0,13.78-10.42,21.27-22.05,9.83-15.24,15.45-27.99,19.56-37.31l.25-.58c.94-2.13,1.75-3.98,2.52-5.61l.02-.04.05-.02c5.68-2.23,12.55-4.54,21.02-7.05,3.46-1.03,7.01-2.39,10.56-4.04l.32-.15ZM8.06,146.14s-.09,0-.14,0c-5.05-.19-5.94-4.98-6.02-7.82-.41-14.33,11.75-29.16,14.79-32.06,10.76-10.31,17.25-16.54,32.35-22.87l.17-.07v.25c-.43.91-.86,1.89-1.31,2.91l-.54,1.23c-4.1,9.3-9.7,22.01-19.49,37.2-6.63,10.29-14.17,21.24-19.81,21.24ZM48.84,83.74c-14.85,6.27-21.32,12.47-31.98,22.69-3.02,2.89-15.12,17.64-14.71,31.88.08,2.75.93,7.39,5.78,7.58.04,0,.09,0,.13,0,5.51,0,13-10.89,19.6-21.12,9.78-15.17,15.37-27.87,19.46-37.14l.55-1.25c.41-.93.79-1.8,1.17-2.64ZM87.55,67.1l.18-.36c2.81-5.68,5.41-11.02,7.7-15.73l.49-1.01C111.61,17.79,118.11,4.45,128.29,3.76c.26-.03.53-.03.81-.03h.12c2.28.04,5.31.76,7.08,4.02,2.54,4.67-3.06,13.91-4.83,16.63-12.58,19.24-27.23,33.55-43.56,42.54l-.35.19ZM128.97,3.98c-.23,0-.45,0-.66.03-10.05.69-16.52,13.98-32.17,46.11l-.49,1.01c-2.25,4.61-4.79,9.83-7.53,15.38,16.16-8.98,30.66-23.2,43.13-42.27,1.76-2.69,7.3-11.83,4.83-16.37-1.74-3.2-4.76-3.87-6.98-3.87h-.12Z"/>
</svg>