<?xml version="1.0" encoding="UTF-8"?>
<svg id="Layer_1" xmlns="http://www.w3.org/2000/svg" version="1.1" viewBox="0 0 154.51 162.92">
  <!-- Generator: Adobe Illustrator 30.3.0, SVG Export Plug-In . SVG Version: 2.1.3 Build 182)  -->
  <defs>
    <style>
      .st0 {
        fill: none;
        stroke: #f7f7f7;
        stroke-miterlimit: 10;
        stroke-width: 4px;
      }
    </style>
  </defs>
  <path class="st0" d="M48.25,36.78c2.12-.76-3.1,1.64-3.41-1.78-.63-6.77,13.8-10.57,14.7-2.05.43,4.1-6.09,11.31-7.32,12.63-6.16,6.58-13.33,8.03-18.43,2.92-1.78-1.78-2.76-5.71-2.29-8.91,2.42-16.34,19.84-25.54,30.16-29.4,8.75-3.27,11.87-2.73,16.03-1.77,6.73,1.56,7.16,7.23,7.32,8.1,1.21,6.46-1.11,11.39-2.23,14.88-6.21,19.36-15.34,37.69-24.25,55.96-4.17,8.55-9.98,24.65-22.9,44.69-7.52,11.66-14.73,21.87-20.72,21.64-4.69-.18-6.73-3.97-6.86-8.67-.42-14.89,12.26-30.04,15.06-32.72,15.78-15.12,22.42-21.12,56.43-31.23,17.67-5.25,40.19-19.71,59.69-49.55,2.26-3.46,7.59-12.53,4.87-17.53-1.93-3.55-5.39-4.66-8.84-4.43-12.87.88-19.88,20.47-44,68.95-1.19,2.39-5.54,11.43-10.5,24.89-7.45,20.24-10.78,30.31-9.54,40.31.87,7.02,6.54,9.96,9.37,10.12,6.53.39,10.05,1.14,45.03-33.32,0,0,1.89-1.72,0,0"/>
</svg>