<?xml version="1.0" encoding="UTF-8"?>
<svg id="Layer_1" xmlns="http://www.w3.org/2000/svg" version="1.1" viewBox="0 0 154.51 162.92">
  <!-- Generator: Adobe Illustrator 30.3.0, SVG Export Plug-In . SVG Version: 2.1.3 Build 182)  -->
  <defs>
    <style>
      .st0 {
        fill: #f7f7f7;
      }
    </style>
  </defs>
  <path class="st0" d="M82.99,155.93c-.74,0-1.47-.04-2.24-.09l-.28-.02c-4.08-.23-10.27-4.07-11.24-11.87-1.33-10.75,2.39-21.53,9.65-41.25,3.97-10.78,7.52-18.66,9.43-22.7-3.08,1.31-5.84,2.28-8.2,2.98-8.33,2.48-15.01,4.71-20.56,6.88-.77,1.66-1.61,3.56-2.54,5.67-4.13,9.37-9.79,22.21-19.71,37.6-8.06,12.5-15.31,22.87-22.48,22.55-5.32-.2-8.6-4.17-8.78-10.61-.44-15.53,12.25-30.94,15.68-34.22,11.27-10.79,18.01-17.26,34.87-24.09.05-.09.09-.19.14-.28l1.41-2.89c8.3-17.01,16.89-34.6,22.73-52.8.17-.53.36-1.08.57-1.67,1.13-3.22,2.53-7.24,1.6-12.23l-.05-.28c-.19-1.26-.77-5.08-5.76-6.24-3.71-.86-6.39-1.48-14.88,1.7-7.88,2.95-26.47,11.56-28.88,27.82-.42,2.86.55,6.03,1.73,7.2,1.68,1.69,3.66,2.52,5.77,2.49,3.12-.05,6.59-1.95,9.78-5.36,3.55-3.81,7.02-8.83,6.79-11.05-.32-3.06-3.09-3.24-4.71-3.08-3.02.3-6.23,2.39-6.01,4.74,0,.02,0,.05,0,.06.21.04.6.02.92-.05.64-.22,1.74-.48,2.56.54l.12,2.32c-.31.48-.86.78-1.5.96,0,0-.01,0-.02,0h0c-1.11.31-2.46.24-3.07.09-1.72-.42-2.84-1.75-3.01-3.57-.46-4.97,4.62-8.59,9.6-9.08,4.96-.49,8.61,2.18,9.08,6.64.49,4.69-5.32,11.5-7.85,14.2-4,4.27-8.37,6.56-12.64,6.63-3.22.04-6.22-1.21-8.67-3.66-2.19-2.19-3.42-6.76-2.85-10.61,2.72-18.37,22.89-27.79,31.44-30.98,8.96-3.35,12.47-2.93,17.18-1.85,3.49.81,7.84,3.12,8.81,9.53l.02.15c1.13,6.04-.54,10.8-1.76,14.28-.19.55-.38,1.08-.54,1.57-5.85,18.23-14.35,35.73-22.61,52.65,4.81-1.76,10.37-3.57,16.9-5.51,3.3-.98,7.43-2.5,12.14-4.83,3.41-6.88,6.47-13.18,9.22-18.83,16.23-33.32,22.94-47.11,34.79-47.92,4.83-.33,8.64,1.62,10.73,5.47,3.1,5.69-1.77,14.71-4.95,19.58-16.17,24.75-33.49,37.8-46.8,44.67-.35.7-.7,1.41-1.05,2.12-.85,1.7-5.33,10.88-10.41,24.69-7.61,20.67-10.59,30.02-9.43,39.37.76,6.1,5.76,8.27,7.5,8.37l.29.02c5.65.35,9.38.57,43.22-32.77l.06-.05h0s.84-.76.84-.76l2.69,2.96-.84.76c-31.3,30.84-37.81,33.95-43.97,33.95ZM54.15,92.12c-13.26,5.91-19.45,11.84-29.66,21.62-2.96,2.83-14.84,17.3-14.44,31.22.08,2.99,1.01,6.58,4.94,6.73.04,0,.08,0,.12,0,5.47,0,14.15-13.47,18.84-20.73,9.75-15.12,15.33-27.79,19.41-37.04.27-.62.54-1.22.8-1.8ZM136.12,11.53c-.25,0-.49,0-.73.02-9.54.65-16.41,14.76-31.46,45.68-2.06,4.23-4.29,8.81-6.71,13.74,12.01-7.17,26.56-19.47,40.34-40.56,3.48-5.33,6.57-12.2,4.79-15.48-1.5-2.75-4.08-3.42-6.22-3.42Z"/>
</svg>