<?xml version="1.0" encoding="UTF-8"?>
<svg id="Layer_1" xmlns="http://www.w3.org/2000/svg" version="1.1" viewBox="0 0 139.43 148.78">
  <!-- Generator: Adobe Illustrator 30.3.0, SVG Export Plug-In . SVG Version: 2.1.3 Build 182)  -->
  <defs>
    <style>
      .st0 {
        fill: #334c56;
      }
    </style>
  </defs>
  <path class="st0" d="M75.82,148.25c-.68,0-1.35-.04-2.04-.08l-.28-.02c-3.63-.21-9.42-3.84-10.3-11-1.24-10.01,1.81-19.62,9.59-40.78,5.15-13.98,9.69-23.27,10.54-24.99l.04-.08c-4.05,1.88-7.64,3.17-10.58,4.05-8.55,2.54-15.36,4.83-21.01,7.05-.82,1.75-1.71,3.78-2.71,6.05-4.12,9.34-9.75,22.14-19.63,37.46-7.6,11.79-14.96,22.34-21.6,22.1-4.74-.18-7.66-3.79-7.82-9.64-.42-15.02,12.22-30.45,15.37-33.47,11.57-11.09,18.11-17.35,34.93-24.07.09-.2.19-.39.28-.58l1.41-2.89c8.32-17.04,16.93-34.67,22.79-52.94.17-.52.36-1.07.56-1.65,1.17-3.34,2.62-7.49,1.64-12.74l-.04-.25c-.58-3.82-2.77-6.19-6.52-7.06-3.74-.86-6.69-1.54-15.45,1.73-8.05,3.01-27.03,11.82-29.52,28.61-.43,2.91.47,6.52,2.01,8.06,1.88,1.88,4.08,2.84,6.49,2.78,3.39-.05,7.12-2.07,10.5-5.68,3.71-3.98,7.33-9.19,7.06-11.84-.44-4.18-4.55-4.09-5.8-3.97-3.56.35-7.19,2.78-6.91,5.83.05.52.24.71.39.79.47.3,1.32.2,1.81.09.53-.19,1.07-.33,1.5.2l.06,1.16c-.16.25-.53.43-.98.55-.01,0-.02,0-.03.01h0c-.83.2-1.92.2-2.49.06-1.32-.32-2.12-1.28-2.25-2.69-.41-4.37,4.2-7.55,8.7-8,4.45-.44,7.57,1.82,7.99,5.75.46,4.4-5.69,11.38-7.58,13.42-3.75,4.01-7.99,6.25-11.93,6.31-2.95.04-5.7-1.12-7.94-3.37-1.99-1.99-3.1-6.19-2.57-9.76C26.12,14.92,45.9,5.71,54.28,2.57c8.7-3.25,12.08-2.85,16.61-1.81,3.18.74,7.16,2.85,8.05,8.71l.03.18c1.08,5.78-.54,10.4-1.72,13.77-.2.56-.38,1.1-.54,1.6-5.91,18.41-14.54,36.1-22.9,53.21l-.75,1.53c5.29-2,11.55-4.06,19.16-6.33,3.42-1.02,7.71-2.6,12.6-5.05,3.47-7,6.58-13.4,9.37-19.13C110.25,16.29,116.89,2.65,128.16,1.88c4.42-.3,7.89,1.46,9.79,4.95,2.85,5.24-1.85,13.87-4.91,18.55-16.18,24.76-33.49,37.71-46.71,44.48-.4.8-.79,1.6-1.2,2.41-.85,1.7-5.34,10.91-10.46,24.79-7.67,20.83-10.67,30.27-9.49,39.84.82,6.61,6.14,9.11,8.43,9.25l.29.02c5.92.36,9.83.6,43.99-33.05l.87-.79,1.35,1.48-.84.76c-31.14,30.68-37.62,33.68-43.44,33.68ZM49.08,83.5c-15.05,6.31-21.42,12.4-32.31,22.84-3.02,2.89-15.16,17.68-14.75,31.97.08,2.79.95,7.51,5.9,7.7,5.56.18,13.16-10.82,19.84-21.18,9.79-15.19,15.39-27.9,19.48-37.18.66-1.49,1.26-2.87,1.84-4.14ZM129.1,3.85c-.28,0-.54,0-.8.03-10.12.69-16.61,14.03-32.3,46.25-2.46,5.05-5.17,10.62-8.16,16.67,12.63-6.95,28.54-19.58,43.52-42.5,1.77-2.71,7.34-11.89,4.83-16.5-1.73-3.18-4.67-3.94-7.09-3.94Z"/>
</svg>