<?xml version="1.0" encoding="UTF-8"?>
<svg id="Layer_2" xmlns="http://www.w3.org/2000/svg" version="1.1" viewBox="0 0 113.3 106.3">
  <!-- Generator: Adobe Illustrator 30.3.0, SVG Export Plug-In . SVG Version: 2.1.3 Build 182)  -->
  <defs>
    <style>
      .st0 {
        fill: none;
        stroke: #334c56;
        stroke-linecap: round;
        stroke-linejoin: round;
        stroke-width: 3px;
      }
    </style>
  </defs>
  <path class="st0" d="M26.09,11.16l-9.76,9.76c-2.08,2.08-2.99,5.04-2.43,7.92,2.8,14.47,11.69,54.5,66.84,67.37,2.96.69,6.08-.22,8.23-2.37l9.31-9.31c1.72-1.72,1.72-4.52,0-6.24l-12.22-12.31c-1.72-1.72-4.52-1.72-6.24,0l-8.13,8.13c-1.03,1.03-2.46.78-3.84.28-7.7-2.78-29.32-23.1-32.31-31.63-.37-1.03-.27-2.21.52-2.99l8.75-8.75c1.71-1.71,1.72-4.45.06-6.18l-12.44-13.62c-1.71-1.78-4.56-1.81-6.3-.06h-.01Z"/>
</svg>